G04 start of page 11 for group -4014 idx -4014 *
G04 Title: (unknown), bottompaste *
G04 Creator: pcb 1.99z *
G04 CreationDate: Thu 18 Dec 2014 10:43:55 PM GMT UTC *
G04 For: commonadmin *
G04 Format: Gerber/RS-274X *
G04 PCB-Dimensions (mil): 354.33 9055.12 *
G04 PCB-Coordinate-Origin: lower left *
%MOIN*%
%FSLAX25Y25*%
%LNBOTTOMPASTE*%
%ADD31R,0.0512X0.0512*%
G54D31*X18700Y877165D02*Y874803D01*
X6890Y877165D02*Y874803D01*
X18700Y853543D02*Y851181D01*
X6890Y853543D02*Y851181D01*
X18700Y829921D02*Y827559D01*
X6890Y829921D02*Y827559D01*
X18700Y806299D02*Y803937D01*
X6890Y806299D02*Y803937D01*
X18700Y782677D02*Y780315D01*
X6890Y782677D02*Y780315D01*
X18700Y759055D02*Y756693D01*
X6890Y759055D02*Y756693D01*
X18700Y735433D02*Y733071D01*
X6890Y735433D02*Y733071D01*
X18700Y711811D02*Y709449D01*
X6890Y711811D02*Y709449D01*
X18700Y688189D02*Y685827D01*
X6890Y688189D02*Y685827D01*
X18700Y664567D02*Y662205D01*
X6890Y664567D02*Y662205D01*
X18700Y640945D02*Y638583D01*
X6890Y640945D02*Y638583D01*
X18700Y617323D02*Y614961D01*
X6890Y617323D02*Y614961D01*
X18700Y593701D02*Y591339D01*
X6890Y593701D02*Y591339D01*
X18700Y570079D02*Y567717D01*
X6890Y570079D02*Y567717D01*
X18700Y546457D02*Y544095D01*
X6890Y546457D02*Y544095D01*
X18700Y522835D02*Y520473D01*
X6890Y522835D02*Y520473D01*
X18700Y499212D02*Y496850D01*
X6890Y499212D02*Y496850D01*
X18700Y475590D02*Y473228D01*
X6890Y475590D02*Y473228D01*
X18700Y451968D02*Y449606D01*
X6890Y451968D02*Y449606D01*
X18700Y428346D02*Y425984D01*
X6890Y428346D02*Y425984D01*
X18700Y404724D02*Y402362D01*
X6890Y404724D02*Y402362D01*
X18700Y381102D02*Y378740D01*
X6890Y381102D02*Y378740D01*
X18700Y357480D02*Y355118D01*
X6890Y357480D02*Y355118D01*
X18700Y333858D02*Y331496D01*
X6890Y333858D02*Y331496D01*
X18700Y310236D02*Y307874D01*
X6890Y310236D02*Y307874D01*
X18700Y286614D02*Y284252D01*
X6890Y286614D02*Y284252D01*
X18700Y262992D02*Y260630D01*
X6890Y262992D02*Y260630D01*
X18700Y239370D02*Y237008D01*
X6890Y239370D02*Y237008D01*
X18700Y215748D02*Y213386D01*
X6890Y215748D02*Y213386D01*
X18700Y192126D02*Y189764D01*
X6890Y192126D02*Y189764D01*
X18700Y168504D02*Y166142D01*
X6890Y168504D02*Y166142D01*
X18700Y144882D02*Y142520D01*
X6890Y144882D02*Y142520D01*
X18700Y121260D02*Y118898D01*
X6890Y121260D02*Y118898D01*
X18700Y97638D02*Y95276D01*
X6890Y97638D02*Y95276D01*
X18700Y74016D02*Y71654D01*
X6890Y74016D02*Y71654D01*
M02*
