G04 start of page 2 for group 0 idx 0 *
G04 Title: (unknown), top *
G04 Creator: pcb 1.99z *
G04 CreationDate: Thu 18 Dec 2014 10:45:39 PM GMT UTC *
G04 For: commonadmin *
G04 Format: Gerber/RS-274X *
G04 PCB-Dimensions (mil): 354.33 9055.12 *
G04 PCB-Coordinate-Origin: lower left *
%MOIN*%
%FSLAX25Y25*%
%LNTOP*%
%ADD16C,0.0250*%
%ADD15C,0.1181*%
%ADD14C,0.0400*%
%ADD13C,0.1378*%
%ADD12R,0.0600X0.0600*%
%ADD11C,0.0150*%
G54D11*X6890Y675008D02*X13591D01*
X17717Y679134D01*
X6890Y651386D02*X13591D01*
X17717Y655512D01*
Y643512D02*X24417D01*
X17717Y619890D02*X24417D01*
X28543Y624016D01*
X24417Y643512D02*X28543Y647638D01*
X6890Y627764D02*X13591D01*
X17717Y631890D01*
X6890Y604142D02*X13591D01*
X17717Y608268D01*
Y596268D02*X24417D01*
X17717Y572646D02*X24417D01*
X28543Y576772D01*
X24417Y596268D02*X28543Y600394D01*
X6890Y580520D02*X13591D01*
X17717Y584646D01*
X6890Y556898D02*X13591D01*
X17717Y561024D01*
Y549024D02*X24417D01*
X17717Y525402D02*X24417D01*
X28543Y529528D01*
X24417Y549024D02*X28543Y553150D01*
X6890Y816740D02*X13591D01*
X6890Y793118D02*X13591D01*
X17717Y797244D01*
X13591Y816740D02*X17717Y820866D01*
Y808866D02*X24417D01*
X28543Y812992D01*
X17717Y785244D02*X24417D01*
X28543Y789370D01*
X17717Y761622D02*X24417D01*
X28543Y765748D01*
X6890Y840362D02*X13591D01*
X17717Y844488D01*
Y832488D02*X24417D01*
X6890Y863984D02*X13591D01*
X17717Y868110D01*
Y856110D02*X24417D01*
X28543Y860236D01*
X24417Y832488D02*X28543Y836614D01*
X6890Y769496D02*X13591D01*
X17717Y773622D01*
X6890Y745874D02*X13591D01*
X17717Y750000D01*
Y738000D02*X24417D01*
X17717Y714378D02*X24417D01*
X28543Y718504D01*
X24417Y738000D02*X28543Y742126D01*
X6890Y722252D02*X13591D01*
X17717Y726378D01*
X6890Y698630D02*X13591D01*
X17717Y702756D01*
Y690756D02*X24417D01*
X17717Y667134D02*X24417D01*
X28543Y671260D01*
X24417Y690756D02*X28543Y694882D01*
X6890Y533276D02*X13591D01*
X17717Y537402D01*
X6890Y509654D02*X13591D01*
X17717Y513780D01*
Y501780D02*X24417D01*
X17717Y478157D02*X24417D01*
X28543Y482283D01*
X24417Y501780D02*X28543Y505906D01*
X6890Y486032D02*X13591D01*
X17717Y490157D01*
X6890Y462409D02*X13591D01*
X17717Y466535D01*
Y454535D02*X24417D01*
X17717Y430913D02*X24417D01*
X28543Y435039D01*
X24417Y454535D02*X28543Y458661D01*
X6890Y438787D02*X13591D01*
X17717Y442913D01*
X6890Y415165D02*X13591D01*
X17717Y419291D01*
Y407292D02*X24417D01*
X17717Y383669D02*X24417D01*
X28543Y387795D01*
X24417Y407292D02*X28543Y411417D01*
X6890Y391543D02*X13591D01*
X17717Y395669D01*
X6890Y367921D02*X13591D01*
X17717Y372047D01*
Y360047D02*X24417D01*
X17717Y336425D02*X24417D01*
X28543Y340551D01*
X24417Y360047D02*X28543Y364173D01*
X6890Y344299D02*X13591D01*
X17717Y348425D01*
X6890Y320677D02*X13591D01*
X17717Y324803D01*
Y312803D02*X24417D01*
X17717Y289181D02*X24417D01*
X28543Y293307D01*
X24417Y312803D02*X28543Y316929D01*
X6890Y297055D02*X13591D01*
X17717Y301181D01*
X6890Y273433D02*X13591D01*
X17717Y277559D01*
Y265559D02*X24417D01*
X17717Y241937D02*X24417D01*
X28543Y246063D01*
X24417Y265559D02*X28543Y269685D01*
X6890Y249811D02*X13591D01*
X17717Y253937D01*
X6890Y226189D02*X13591D01*
X17717Y230315D01*
Y218315D02*X24417D01*
X17717Y194693D02*X24417D01*
X28543Y198819D01*
X24417Y218315D02*X28543Y222441D01*
X6890Y202567D02*X13591D01*
X17717Y206693D01*
X6890Y178945D02*X13591D01*
X17717Y183071D01*
Y171071D02*X24417D01*
X17717Y147449D02*X24417D01*
X28543Y151575D01*
X24417Y171071D02*X28543Y175197D01*
X6890Y155323D02*X13591D01*
X17717Y159449D01*
X6890Y131701D02*X13591D01*
X17717Y135827D01*
Y123827D02*X24417D01*
X17717Y100205D02*X24417D01*
X28543Y104331D01*
X24417Y123827D02*X28543Y127953D01*
X6890Y108079D02*X13591D01*
X17717Y112205D01*
X6890Y84457D02*X13591D01*
X17717Y88583D01*
X6890Y60835D02*X13591D01*
X17717Y64961D01*
Y76583D02*X24417D01*
X17717Y52961D02*X24417D01*
X28543Y57087D01*
X24417Y76583D02*X28543Y80709D01*
G54D12*X17217Y761622D02*X18217D01*
X17217Y773622D02*X18217D01*
X6390Y769496D02*X7390D01*
X6390Y781496D02*X7390D01*
X6390Y745874D02*X7390D01*
X6390Y757874D02*X7390D01*
X28043Y753748D02*X29043D01*
X28043Y730126D02*X29043D01*
X28043Y742126D02*X29043D01*
X28043Y718504D02*X29043D01*
X17217Y738000D02*X18217D01*
X17217Y750000D02*X18217D01*
X6390Y722252D02*X7390D01*
X6390Y734252D02*X7390D01*
X17217Y714378D02*X18217D01*
X17217Y726378D02*X18217D01*
X28043Y706504D02*X29043D01*
X28043Y682882D02*X29043D01*
X28043Y694882D02*X29043D01*
X6390Y698630D02*X7390D01*
X6390Y710630D02*X7390D01*
X17217Y690756D02*X18217D01*
X17217Y702756D02*X18217D01*
X17217Y679134D02*X18217D01*
X28043Y848236D02*X29043D01*
X17217Y844488D02*X18217D01*
X28043Y836614D02*X29043D01*
X17217Y856110D02*X18217D01*
X6390Y840362D02*X7390D01*
X6390Y852362D02*X7390D01*
X6390Y828740D02*X7390D01*
X6390Y863984D02*X7390D01*
X6390Y875984D02*X7390D01*
X28043Y860236D02*X29043D01*
X17217Y868110D02*X18217D01*
X28043Y824614D02*X29043D01*
X28043Y800992D02*X29043D01*
X28043Y812992D02*X29043D01*
X28043Y777370D02*X29043D01*
X28043Y789370D02*X29043D01*
X28043Y765748D02*X29043D01*
X17217Y832488D02*X18217D01*
X17217Y808866D02*X18217D01*
X17217Y820866D02*X18217D01*
X17217Y785244D02*X18217D01*
X17217Y797244D02*X18217D01*
X6390Y816740D02*X7390D01*
X6390Y793118D02*X7390D01*
X6390Y805118D02*X7390D01*
X6390Y675008D02*X7390D01*
X6390Y687008D02*X7390D01*
X28043Y671260D02*X29043D01*
X17217Y667134D02*X18217D01*
X28043Y659260D02*X29043D01*
X28043Y647638D02*X29043D01*
X17217Y655512D02*X18217D01*
X6390Y651386D02*X7390D01*
X6390Y663386D02*X7390D01*
X6390Y639764D02*X7390D01*
X28043Y635638D02*X29043D01*
X17217Y643512D02*X18217D01*
X17217Y631890D02*X18217D01*
X28043Y612016D02*X29043D01*
X28043Y600394D02*X29043D01*
X17217Y596268D02*X18217D01*
X17217Y608268D02*X18217D01*
X28043Y624016D02*X29043D01*
X17217Y619890D02*X18217D01*
X6390Y627764D02*X7390D01*
X6390Y616142D02*X7390D01*
X28043Y588394D02*X29043D01*
X28043Y564772D02*X29043D01*
X28043Y576772D02*X29043D01*
X17217Y572646D02*X18217D01*
X17217Y584646D02*X18217D01*
X6390Y604142D02*X7390D01*
X6390Y580520D02*X7390D01*
X6390Y592520D02*X7390D01*
X17217Y549024D02*X18217D01*
X17217Y561024D02*X18217D01*
X6390Y556898D02*X7390D01*
X6390Y568898D02*X7390D01*
X6390Y545276D02*X7390D01*
X28043Y541150D02*X29043D01*
X28043Y553150D02*X29043D01*
X28043Y517528D02*X29043D01*
X28043Y529528D02*X29043D01*
X17217Y537402D02*X18217D01*
X17217Y525402D02*X18217D01*
X17217Y501780D02*X18217D01*
X17217Y513780D02*X18217D01*
X6390Y533276D02*X7390D01*
X6390Y509654D02*X7390D01*
X6390Y521654D02*X7390D01*
X6390Y498032D02*X7390D01*
X28043Y493906D02*X29043D01*
X28043Y505906D02*X29043D01*
X28043Y470283D02*X29043D01*
X28043Y482283D02*X29043D01*
X17217Y490157D02*X18217D01*
X17217Y478157D02*X18217D01*
X17217Y454535D02*X18217D01*
X17217Y466535D02*X18217D01*
X6390Y486032D02*X7390D01*
X6390Y462409D02*X7390D01*
X6390Y474409D02*X7390D01*
X6390Y450787D02*X7390D01*
X28043Y446662D02*X29043D01*
X28043Y458662D02*X29043D01*
X28043Y423039D02*X29043D01*
X28043Y435039D02*X29043D01*
X17217Y442913D02*X18217D01*
X17217Y430913D02*X18217D01*
X17217Y407292D02*X18217D01*
X17217Y419292D02*X18217D01*
X6390Y438787D02*X7390D01*
X6390Y415165D02*X7390D01*
X6390Y427165D02*X7390D01*
X6390Y403543D02*X7390D01*
X28043Y399417D02*X29043D01*
X28043Y411417D02*X29043D01*
X28043Y375795D02*X29043D01*
X28043Y387795D02*X29043D01*
X17217Y395669D02*X18217D01*
X17217Y383669D02*X18217D01*
X17217Y360047D02*X18217D01*
X17217Y372047D02*X18217D01*
X6390Y391543D02*X7390D01*
X6390Y367921D02*X7390D01*
X6390Y379921D02*X7390D01*
X6390Y356299D02*X7390D01*
X28043Y352173D02*X29043D01*
X28043Y364173D02*X29043D01*
X28043Y328551D02*X29043D01*
X28043Y340551D02*X29043D01*
X17217Y348425D02*X18217D01*
X17217Y336425D02*X18217D01*
X17217Y312803D02*X18217D01*
X17217Y324803D02*X18217D01*
X6390Y344299D02*X7390D01*
X6390Y320677D02*X7390D01*
X6390Y332677D02*X7390D01*
X6390Y309055D02*X7390D01*
X28043Y304929D02*X29043D01*
X28043Y316929D02*X29043D01*
X28043Y281307D02*X29043D01*
X28043Y293307D02*X29043D01*
X17217Y301181D02*X18217D01*
X17217Y289181D02*X18217D01*
X17217Y265559D02*X18217D01*
X17217Y277559D02*X18217D01*
X6390Y297055D02*X7390D01*
X6390Y273433D02*X7390D01*
X6390Y285433D02*X7390D01*
X6390Y261811D02*X7390D01*
X28043Y257685D02*X29043D01*
X28043Y269685D02*X29043D01*
X28043Y234063D02*X29043D01*
X28043Y246063D02*X29043D01*
X17217Y253937D02*X18217D01*
X17217Y241937D02*X18217D01*
X17217Y218315D02*X18217D01*
X17217Y230315D02*X18217D01*
X6390Y249811D02*X7390D01*
X6390Y226189D02*X7390D01*
X6390Y238189D02*X7390D01*
X6390Y214567D02*X7390D01*
X28043Y210441D02*X29043D01*
X28043Y222441D02*X29043D01*
X28043Y186819D02*X29043D01*
X28043Y198819D02*X29043D01*
X17217Y206693D02*X18217D01*
X17217Y194693D02*X18217D01*
X17217Y171071D02*X18217D01*
X17217Y183071D02*X18217D01*
X6390Y202567D02*X7390D01*
X6390Y178945D02*X7390D01*
X6390Y190945D02*X7390D01*
X6390Y167323D02*X7390D01*
X28043Y163197D02*X29043D01*
X28043Y175197D02*X29043D01*
X28043Y139575D02*X29043D01*
X28043Y151575D02*X29043D01*
X17217Y159449D02*X18217D01*
X17217Y147449D02*X18217D01*
X17217Y123827D02*X18217D01*
X17217Y135827D02*X18217D01*
X6390Y155323D02*X7390D01*
X6390Y131701D02*X7390D01*
X6390Y143701D02*X7390D01*
X6390Y120079D02*X7390D01*
X28043Y115953D02*X29043D01*
X28043Y127953D02*X29043D01*
X28043Y92331D02*X29043D01*
X28043Y104331D02*X29043D01*
X17217Y112205D02*X18217D01*
X17217Y100205D02*X18217D01*
X17217Y76583D02*X18217D01*
X17217Y88583D02*X18217D01*
X6390Y108079D02*X7390D01*
X6390Y84457D02*X7390D01*
X6390Y96457D02*X7390D01*
X6390Y72835D02*X7390D01*
X28043Y68709D02*X29043D01*
X28043Y80709D02*X29043D01*
X28043Y45087D02*X29043D01*
X28043Y57087D02*X29043D01*
X17217Y52961D02*X18217D01*
X17217Y64961D02*X18217D01*
X6390Y60835D02*X7390D01*
G54D13*X17717Y27559D03*
G54D14*X6890Y545276D03*
Y521654D03*
Y498031D03*
Y474409D03*
Y450787D03*
Y427165D03*
Y403543D03*
Y379921D03*
Y356299D03*
Y332677D03*
Y309055D03*
Y285433D03*
Y261811D03*
Y238189D03*
Y214567D03*
Y190945D03*
Y167323D03*
Y143701D03*
Y120079D03*
Y96457D03*
Y72835D03*
X28543Y612016D03*
Y588394D03*
Y564772D03*
Y541150D03*
Y517528D03*
Y493906D03*
Y470283D03*
Y446662D03*
Y423039D03*
Y399417D03*
Y375795D03*
Y352173D03*
Y328551D03*
Y304929D03*
Y281307D03*
Y257685D03*
Y234063D03*
Y210441D03*
Y186819D03*
Y163197D03*
Y139575D03*
Y115953D03*
Y92331D03*
Y68709D03*
Y45087D03*
G54D13*X17717Y893701D03*
G54D14*X6890Y875984D03*
Y852362D03*
Y828740D03*
Y805118D03*
Y781496D03*
X28543Y848236D03*
Y824614D03*
Y800992D03*
Y777370D03*
Y753748D03*
X6890Y710630D03*
Y687008D03*
Y663386D03*
Y639764D03*
Y616142D03*
Y592520D03*
Y568898D03*
Y757874D03*
Y734252D03*
X28543Y730126D03*
Y706504D03*
Y682882D03*
Y659260D03*
Y635638D03*
G54D15*G54D16*G54D15*G54D16*M02*
