<?xml version="1.0" encoding="UTF-8"?>
<svg xmlns="http://www.w3.org/2000/svg" xmlns:xlink="http://www.w3.org/1999/xlink" width="27pt" height="685pt" viewBox="0 0 27 685" version="1.1">
<g id="surface1">
<path style="fill:none;stroke-width:0.006;stroke-linecap:round;stroke-linejoin:miter;stroke:rgb(100%,49.803922%,45.098039%);stroke-opacity:1;stroke-miterlimit:10;" d="M 0.0000110207 9.055115 L 0.0000110207 -0.00000657307 " transform="matrix(72,0,0,-72,0.866394,668.472183)"/>
<path style="fill:none;stroke-width:0.006;stroke-linecap:round;stroke-linejoin:miter;stroke:rgb(100%,49.803922%,45.098039%);stroke-opacity:1;stroke-miterlimit:10;" d="M 0.0000110207 -0.00000657307 L 0.35434 -0.00000657307 " transform="matrix(72,0,0,-72,0.866394,668.472183)"/>
<path style="fill:none;stroke-width:0.006;stroke-linecap:round;stroke-linejoin:miter;stroke:rgb(100%,49.803922%,45.098039%);stroke-opacity:1;stroke-miterlimit:10;" d="M 0.35434 -0.00000657307 L 0.35434 9.055115 " transform="matrix(72,0,0,-72,0.866394,668.472183)"/>
<path style="fill:none;stroke-width:0.006;stroke-linecap:round;stroke-linejoin:miter;stroke:rgb(100%,49.803922%,45.098039%);stroke-opacity:1;stroke-miterlimit:10;" d="M 0.35434 9.055115 L 0.0000110207 9.055115 " transform="matrix(72,0,0,-72,0.866394,668.472183)"/>
<path style=" stroke:none;fill-rule:evenodd;fill:rgb(45.098039%,45.098039%,87.058824%);fill-opacity:1;" d="M 6.726562 37.765625 C 6.726562 36.566406 4.925781 36.566406 4.925781 37.765625 C 4.925781 38.964844 6.726562 38.964844 6.726562 37.765625 "/>
<path style=" stroke:none;fill-rule:evenodd;fill:rgb(45.098039%,45.098039%,87.058824%);fill-opacity:1;" d="M 6.726562 54.773438 C 6.726562 53.574219 4.925781 53.574219 4.925781 54.773438 C 4.925781 55.972656 6.726562 55.972656 6.726562 54.773438 "/>
<path style=" stroke:none;fill-rule:evenodd;fill:rgb(45.098039%,45.098039%,87.058824%);fill-opacity:1;" d="M 6.726562 71.78125 C 6.726562 70.578125 4.925781 70.578125 4.925781 71.78125 C 4.925781 72.980469 6.726562 72.980469 6.726562 71.78125 "/>
<path style=" stroke:none;fill-rule:evenodd;fill:rgb(45.098039%,45.098039%,87.058824%);fill-opacity:1;" d="M 6.726562 88.785156 C 6.726562 87.585938 4.925781 87.585938 4.925781 88.785156 C 4.925781 89.984375 6.726562 89.984375 6.726562 88.785156 "/>
<path style=" stroke:none;fill-rule:evenodd;fill:rgb(45.098039%,45.098039%,87.058824%);fill-opacity:1;" d="M 6.726562 105.792969 C 6.726562 104.59375 4.925781 104.59375 4.925781 105.792969 C 4.925781 106.992188 6.726562 106.992188 6.726562 105.792969 "/>
<path style=" stroke:none;fill-rule:evenodd;fill:rgb(45.098039%,45.098039%,87.058824%);fill-opacity:1;" d="M 6.726562 122.804688 C 6.726562 121.605469 4.925781 121.605469 4.925781 122.804688 C 4.925781 124.003906 6.726562 124.003906 6.726562 122.804688 "/>
<path style=" stroke:none;fill-rule:evenodd;fill:rgb(45.098039%,45.098039%,87.058824%);fill-opacity:1;" d="M 6.726562 139.8125 C 6.726562 138.613281 4.925781 138.613281 4.925781 139.8125 C 4.925781 141.011719 6.726562 141.011719 6.726562 139.8125 "/>
<path style=" stroke:none;fill-rule:evenodd;fill:rgb(45.098039%,45.098039%,87.058824%);fill-opacity:1;" d="M 6.726562 156.820312 C 6.726562 155.617188 4.925781 155.617188 4.925781 156.820312 C 4.925781 158.019531 6.726562 158.019531 6.726562 156.820312 "/>
<path style=" stroke:none;fill-rule:evenodd;fill:rgb(45.098039%,45.098039%,87.058824%);fill-opacity:1;" d="M 6.726562 173.824219 C 6.726562 172.625 4.925781 172.625 4.925781 173.824219 C 4.925781 175.023438 6.726562 175.023438 6.726562 173.824219 "/>
<path style=" stroke:none;fill-rule:evenodd;fill:rgb(45.098039%,45.098039%,87.058824%);fill-opacity:1;" d="M 6.726562 190.832031 C 6.726562 189.632812 4.925781 189.632812 4.925781 190.832031 C 4.925781 192.03125 6.726562 192.03125 6.726562 190.832031 "/>
<path style=" stroke:none;fill-rule:evenodd;fill:rgb(45.098039%,45.098039%,87.058824%);fill-opacity:1;" d="M 6.726562 207.84375 C 6.726562 206.644531 4.925781 206.644531 4.925781 207.84375 C 4.925781 209.046875 6.726562 209.046875 6.726562 207.84375 "/>
<path style=" stroke:none;fill-rule:evenodd;fill:rgb(45.098039%,45.098039%,87.058824%);fill-opacity:1;" d="M 6.726562 224.851562 C 6.726562 223.652344 4.925781 223.652344 4.925781 224.851562 C 4.925781 226.050781 6.726562 226.050781 6.726562 224.851562 "/>
<path style=" stroke:none;fill-rule:evenodd;fill:rgb(45.098039%,45.098039%,87.058824%);fill-opacity:1;" d="M 6.726562 241.859375 C 6.726562 240.65625 4.925781 240.65625 4.925781 241.859375 C 4.925781 243.058594 6.726562 243.058594 6.726562 241.859375 "/>
<path style=" stroke:none;fill-rule:evenodd;fill:rgb(45.098039%,45.098039%,87.058824%);fill-opacity:1;" d="M 6.726562 258.863281 C 6.726562 257.664062 4.925781 257.664062 4.925781 258.863281 C 4.925781 260.0625 6.726562 260.0625 6.726562 258.863281 "/>
<path style=" stroke:none;fill-rule:evenodd;fill:rgb(45.098039%,45.098039%,87.058824%);fill-opacity:1;" d="M 6.726562 275.871094 C 6.726562 274.671875 4.925781 274.671875 4.925781 275.871094 C 4.925781 277.070312 6.726562 277.070312 6.726562 275.871094 "/>
<path style=" stroke:none;fill-rule:evenodd;fill:rgb(45.098039%,45.098039%,87.058824%);fill-opacity:1;" d="M 6.726562 292.882812 C 6.726562 291.683594 4.925781 291.683594 4.925781 292.882812 C 4.925781 294.085938 6.726562 294.085938 6.726562 292.882812 "/>
<path style=" stroke:none;fill-rule:evenodd;fill:rgb(45.098039%,45.098039%,87.058824%);fill-opacity:1;" d="M 6.726562 309.890625 C 6.726562 308.691406 4.925781 308.691406 4.925781 309.890625 C 4.925781 311.089844 6.726562 311.089844 6.726562 309.890625 "/>
<path style=" stroke:none;fill-rule:evenodd;fill:rgb(45.098039%,45.098039%,87.058824%);fill-opacity:1;" d="M 6.726562 326.898438 C 6.726562 325.695312 4.925781 325.695312 4.925781 326.898438 C 4.925781 328.097656 6.726562 328.097656 6.726562 326.898438 "/>
<path style=" stroke:none;fill-rule:evenodd;fill:rgb(45.098039%,45.098039%,87.058824%);fill-opacity:1;" d="M 6.726562 343.902344 C 6.726562 342.703125 4.925781 342.703125 4.925781 343.902344 C 4.925781 345.101562 6.726562 345.101562 6.726562 343.902344 "/>
<path style=" stroke:none;fill-rule:evenodd;fill:rgb(45.098039%,45.098039%,87.058824%);fill-opacity:1;" d="M 6.726562 360.910156 C 6.726562 359.710938 4.925781 359.710938 4.925781 360.910156 C 4.925781 362.109375 6.726562 362.109375 6.726562 360.910156 "/>
<path style=" stroke:none;fill-rule:evenodd;fill:rgb(45.098039%,45.098039%,87.058824%);fill-opacity:1;" d="M 6.726562 377.921875 C 6.726562 376.722656 4.925781 376.722656 4.925781 377.921875 C 4.925781 379.125 6.726562 379.125 6.726562 377.921875 "/>
<path style=" stroke:none;fill-rule:evenodd;fill:rgb(45.098039%,45.098039%,87.058824%);fill-opacity:1;" d="M 6.726562 394.929688 C 6.726562 393.730469 4.925781 393.730469 4.925781 394.929688 C 4.925781 396.128906 6.726562 396.128906 6.726562 394.929688 "/>
<path style=" stroke:none;fill-rule:evenodd;fill:rgb(45.098039%,45.098039%,87.058824%);fill-opacity:1;" d="M 6.726562 411.9375 C 6.726562 410.734375 4.925781 410.734375 4.925781 411.9375 C 4.925781 413.136719 6.726562 413.136719 6.726562 411.9375 "/>
<path style=" stroke:none;fill-rule:evenodd;fill:rgb(45.098039%,45.098039%,87.058824%);fill-opacity:1;" d="M 6.726562 428.941406 C 6.726562 427.742188 4.925781 427.742188 4.925781 428.941406 C 4.925781 430.144531 6.726562 430.144531 6.726562 428.941406 "/>
<path style=" stroke:none;fill-rule:evenodd;fill:rgb(45.098039%,45.098039%,87.058824%);fill-opacity:1;" d="M 6.726562 445.949219 C 6.726562 444.75 4.925781 444.75 4.925781 445.949219 C 4.925781 447.148438 6.726562 447.148438 6.726562 445.949219 "/>
<path style=" stroke:none;fill-rule:evenodd;fill:rgb(45.098039%,45.098039%,87.058824%);fill-opacity:1;" d="M 6.726562 462.960938 C 6.726562 461.761719 4.925781 461.761719 4.925781 462.960938 C 4.925781 464.164062 6.726562 464.164062 6.726562 462.960938 "/>
<path style=" stroke:none;fill-rule:evenodd;fill:rgb(45.098039%,45.098039%,87.058824%);fill-opacity:1;" d="M 6.726562 479.96875 C 6.726562 478.769531 4.925781 478.769531 4.925781 479.96875 C 4.925781 481.167969 6.726562 481.167969 6.726562 479.96875 "/>
<path style=" stroke:none;fill-rule:evenodd;fill:rgb(45.098039%,45.098039%,87.058824%);fill-opacity:1;" d="M 6.726562 496.976562 C 6.726562 495.773438 4.925781 495.773438 4.925781 496.976562 C 4.925781 498.175781 6.726562 498.175781 6.726562 496.976562 "/>
<path style=" stroke:none;fill-rule:evenodd;fill:rgb(45.098039%,45.098039%,87.058824%);fill-opacity:1;" d="M 6.726562 513.980469 C 6.726562 512.78125 4.925781 512.78125 4.925781 513.980469 C 4.925781 515.183594 6.726562 515.183594 6.726562 513.980469 "/>
<path style=" stroke:none;fill-rule:evenodd;fill:rgb(45.098039%,45.098039%,87.058824%);fill-opacity:1;" d="M 6.726562 530.996094 C 6.726562 529.796875 4.925781 529.796875 4.925781 530.996094 C 4.925781 532.195312 6.726562 532.195312 6.726562 530.996094 "/>
<path style=" stroke:none;fill-rule:evenodd;fill:rgb(45.098039%,45.098039%,87.058824%);fill-opacity:1;" d="M 6.726562 548 C 6.726562 546.800781 4.925781 546.800781 4.925781 548 C 4.925781 549.203125 6.726562 549.203125 6.726562 548 "/>
<path style=" stroke:none;fill-rule:evenodd;fill:rgb(45.098039%,45.098039%,87.058824%);fill-opacity:1;" d="M 6.726562 565.007812 C 6.726562 563.808594 4.925781 563.808594 4.925781 565.007812 C 4.925781 566.207031 6.726562 566.207031 6.726562 565.007812 "/>
<path style=" stroke:none;fill-rule:evenodd;fill:rgb(45.098039%,45.098039%,87.058824%);fill-opacity:1;" d="M 6.726562 582.015625 C 6.726562 580.816406 4.925781 580.816406 4.925781 582.015625 C 4.925781 583.214844 6.726562 583.214844 6.726562 582.015625 "/>
<path style=" stroke:none;fill-rule:evenodd;fill:rgb(45.098039%,45.098039%,87.058824%);fill-opacity:1;" d="M 6.726562 599.019531 C 6.726562 597.820312 4.925781 597.820312 4.925781 599.019531 C 4.925781 600.222656 6.726562 600.222656 6.726562 599.019531 "/>
<path style=" stroke:none;fill-rule:evenodd;fill:rgb(45.098039%,45.098039%,87.058824%);fill-opacity:1;" d="M 6.726562 616.035156 C 6.726562 614.835938 4.925781 614.835938 4.925781 616.035156 C 4.925781 617.234375 6.726562 617.234375 6.726562 616.035156 "/>
<path style=" stroke:none;fill-rule:evenodd;fill:rgb(45.098039%,45.098039%,87.058824%);fill-opacity:1;" d="M 22.316406 57.738281 C 22.316406 56.539062 20.515625 56.539062 20.515625 57.738281 C 20.515625 58.9375 22.316406 58.9375 22.316406 57.738281 "/>
<path style=" stroke:none;fill-rule:evenodd;fill:rgb(45.098039%,45.098039%,87.058824%);fill-opacity:1;" d="M 22.316406 74.753906 C 22.316406 73.554688 20.515625 73.554688 20.515625 74.753906 C 20.515625 75.953125 22.316406 75.953125 22.316406 74.753906 "/>
<path style=" stroke:none;fill-rule:evenodd;fill:rgb(45.098039%,45.098039%,87.058824%);fill-opacity:1;" d="M 22.316406 91.757812 C 22.316406 90.558594 20.515625 90.558594 20.515625 91.757812 C 20.515625 92.960938 22.316406 92.960938 22.316406 91.757812 "/>
<path style=" stroke:none;fill-rule:evenodd;fill:rgb(45.098039%,45.098039%,87.058824%);fill-opacity:1;" d="M 22.316406 108.765625 C 22.316406 107.566406 20.515625 107.566406 20.515625 108.765625 C 20.515625 109.964844 22.316406 109.964844 22.316406 108.765625 "/>
<path style=" stroke:none;fill-rule:evenodd;fill:rgb(45.098039%,45.098039%,87.058824%);fill-opacity:1;" d="M 22.316406 125.773438 C 22.316406 124.570312 20.515625 124.570312 20.515625 125.773438 C 20.515625 126.972656 22.316406 126.972656 22.316406 125.773438 "/>
<path style=" stroke:none;fill-rule:evenodd;fill:rgb(45.098039%,45.098039%,87.058824%);fill-opacity:1;" d="M 22.316406 142.777344 C 22.316406 141.578125 20.515625 141.578125 20.515625 142.777344 C 20.515625 143.980469 22.316406 143.980469 22.316406 142.777344 "/>
<path style=" stroke:none;fill-rule:evenodd;fill:rgb(45.098039%,45.098039%,87.058824%);fill-opacity:1;" d="M 22.316406 159.792969 C 22.316406 158.59375 20.515625 158.59375 20.515625 159.792969 C 20.515625 160.992188 22.316406 160.992188 22.316406 159.792969 "/>
<path style=" stroke:none;fill-rule:evenodd;fill:rgb(45.098039%,45.098039%,87.058824%);fill-opacity:1;" d="M 22.316406 176.796875 C 22.316406 175.597656 20.515625 175.597656 20.515625 176.796875 C 20.515625 178 22.316406 178 22.316406 176.796875 "/>
<path style=" stroke:none;fill-rule:evenodd;fill:rgb(45.098039%,45.098039%,87.058824%);fill-opacity:1;" d="M 22.316406 193.804688 C 22.316406 192.605469 20.515625 192.605469 20.515625 193.804688 C 20.515625 195.003906 22.316406 195.003906 22.316406 193.804688 "/>
<path style=" stroke:none;fill-rule:evenodd;fill:rgb(45.098039%,45.098039%,87.058824%);fill-opacity:1;" d="M 22.316406 210.8125 C 22.316406 209.613281 20.515625 209.613281 20.515625 210.8125 C 20.515625 212.011719 22.316406 212.011719 22.316406 210.8125 "/>
<path style=" stroke:none;fill-rule:evenodd;fill:rgb(45.098039%,45.098039%,87.058824%);fill-opacity:1;" d="M 22.316406 227.816406 C 22.316406 226.617188 20.515625 226.617188 20.515625 227.816406 C 20.515625 229.019531 22.316406 229.019531 22.316406 227.816406 "/>
<path style=" stroke:none;fill-rule:evenodd;fill:rgb(45.098039%,45.098039%,87.058824%);fill-opacity:1;" d="M 22.316406 244.832031 C 22.316406 243.632812 20.515625 243.632812 20.515625 244.832031 C 20.515625 246.03125 22.316406 246.03125 22.316406 244.832031 "/>
<path style=" stroke:none;fill-rule:evenodd;fill:rgb(45.098039%,45.098039%,87.058824%);fill-opacity:1;" d="M 22.316406 261.835938 C 22.316406 260.636719 20.515625 260.636719 20.515625 261.835938 C 20.515625 263.039062 22.316406 263.039062 22.316406 261.835938 "/>
<path style=" stroke:none;fill-rule:evenodd;fill:rgb(45.098039%,45.098039%,87.058824%);fill-opacity:1;" d="M 22.316406 278.84375 C 22.316406 277.644531 20.515625 277.644531 20.515625 278.84375 C 20.515625 280.042969 22.316406 280.042969 22.316406 278.84375 "/>
<path style=" stroke:none;fill-rule:evenodd;fill:rgb(45.098039%,45.098039%,87.058824%);fill-opacity:1;" d="M 22.316406 295.851562 C 22.316406 294.652344 20.515625 294.652344 20.515625 295.851562 C 20.515625 297.050781 22.316406 297.050781 22.316406 295.851562 "/>
<path style=" stroke:none;fill-rule:evenodd;fill:rgb(45.098039%,45.098039%,87.058824%);fill-opacity:1;" d="M 22.316406 312.855469 C 22.316406 311.65625 20.515625 311.65625 20.515625 312.855469 C 20.515625 314.058594 22.316406 314.058594 22.316406 312.855469 "/>
<path style=" stroke:none;fill-rule:evenodd;fill:rgb(45.098039%,45.098039%,87.058824%);fill-opacity:1;" d="M 22.316406 329.871094 C 22.316406 328.671875 20.515625 328.671875 20.515625 329.871094 C 20.515625 331.070312 22.316406 331.070312 22.316406 329.871094 "/>
<path style=" stroke:none;fill-rule:evenodd;fill:rgb(45.098039%,45.098039%,87.058824%);fill-opacity:1;" d="M 22.316406 346.878906 C 22.316406 345.675781 20.515625 345.675781 20.515625 346.878906 C 20.515625 348.078125 22.316406 348.078125 22.316406 346.878906 "/>
<path style=" stroke:none;fill-rule:evenodd;fill:rgb(45.098039%,45.098039%,87.058824%);fill-opacity:1;" d="M 22.316406 363.882812 C 22.316406 362.683594 20.515625 362.683594 20.515625 363.882812 C 20.515625 365.082031 22.316406 365.082031 22.316406 363.882812 "/>
<path style=" stroke:none;fill-rule:evenodd;fill:rgb(45.098039%,45.098039%,87.058824%);fill-opacity:1;" d="M 22.316406 380.890625 C 22.316406 379.691406 20.515625 379.691406 20.515625 380.890625 C 20.515625 382.089844 22.316406 382.089844 22.316406 380.890625 "/>
<path style=" stroke:none;fill-rule:evenodd;fill:rgb(45.098039%,45.098039%,87.058824%);fill-opacity:1;" d="M 22.316406 397.894531 C 22.316406 396.695312 20.515625 396.695312 20.515625 397.894531 C 20.515625 399.097656 22.316406 399.097656 22.316406 397.894531 "/>
<path style=" stroke:none;fill-rule:evenodd;fill:rgb(45.098039%,45.098039%,87.058824%);fill-opacity:1;" d="M 22.316406 414.910156 C 22.316406 413.710938 20.515625 413.710938 20.515625 414.910156 C 20.515625 416.109375 22.316406 416.109375 22.316406 414.910156 "/>
<path style=" stroke:none;fill-rule:evenodd;fill:rgb(45.098039%,45.098039%,87.058824%);fill-opacity:1;" d="M 22.316406 431.917969 C 22.316406 430.714844 20.515625 430.714844 20.515625 431.917969 C 20.515625 433.117188 22.316406 433.117188 22.316406 431.917969 "/>
<path style=" stroke:none;fill-rule:evenodd;fill:rgb(45.098039%,45.098039%,87.058824%);fill-opacity:1;" d="M 22.316406 448.921875 C 22.316406 447.722656 20.515625 447.722656 20.515625 448.921875 C 20.515625 450.121094 22.316406 450.121094 22.316406 448.921875 "/>
<path style=" stroke:none;fill-rule:evenodd;fill:rgb(45.098039%,45.098039%,87.058824%);fill-opacity:1;" d="M 22.316406 465.929688 C 22.316406 464.730469 20.515625 464.730469 20.515625 465.929688 C 20.515625 467.128906 22.316406 467.128906 22.316406 465.929688 "/>
<path style=" stroke:none;fill-rule:evenodd;fill:rgb(45.098039%,45.098039%,87.058824%);fill-opacity:1;" d="M 22.316406 482.933594 C 22.316406 481.734375 20.515625 481.734375 20.515625 482.933594 C 20.515625 484.136719 22.316406 484.136719 22.316406 482.933594 "/>
<path style=" stroke:none;fill-rule:evenodd;fill:rgb(45.098039%,45.098039%,87.058824%);fill-opacity:1;" d="M 22.316406 499.949219 C 22.316406 498.75 20.515625 498.75 20.515625 499.949219 C 20.515625 501.148438 22.316406 501.148438 22.316406 499.949219 "/>
<path style=" stroke:none;fill-rule:evenodd;fill:rgb(45.098039%,45.098039%,87.058824%);fill-opacity:1;" d="M 22.316406 516.957031 C 22.316406 515.753906 20.515625 515.753906 20.515625 516.957031 C 20.515625 518.15625 22.316406 518.15625 22.316406 516.957031 "/>
<path style=" stroke:none;fill-rule:evenodd;fill:rgb(45.098039%,45.098039%,87.058824%);fill-opacity:1;" d="M 22.316406 533.960938 C 22.316406 532.761719 20.515625 532.761719 20.515625 533.960938 C 20.515625 535.160156 22.316406 535.160156 22.316406 533.960938 "/>
<path style=" stroke:none;fill-rule:evenodd;fill:rgb(45.098039%,45.098039%,87.058824%);fill-opacity:1;" d="M 22.316406 550.96875 C 22.316406 549.769531 20.515625 549.769531 20.515625 550.96875 C 20.515625 552.167969 22.316406 552.167969 22.316406 550.96875 "/>
<path style=" stroke:none;fill-rule:evenodd;fill:rgb(45.098039%,45.098039%,87.058824%);fill-opacity:1;" d="M 22.316406 567.980469 C 22.316406 566.78125 20.515625 566.78125 20.515625 567.980469 C 20.515625 569.183594 22.316406 569.183594 22.316406 567.980469 "/>
<path style=" stroke:none;fill-rule:evenodd;fill:rgb(45.098039%,45.098039%,87.058824%);fill-opacity:1;" d="M 22.316406 584.988281 C 22.316406 583.789062 20.515625 583.789062 20.515625 584.988281 C 20.515625 586.1875 22.316406 586.1875 22.316406 584.988281 "/>
<path style=" stroke:none;fill-rule:evenodd;fill:rgb(45.098039%,45.098039%,87.058824%);fill-opacity:1;" d="M 22.316406 601.996094 C 22.316406 600.792969 20.515625 600.792969 20.515625 601.996094 C 20.515625 603.195312 22.316406 603.195312 22.316406 601.996094 "/>
<path style=" stroke:none;fill-rule:evenodd;fill:rgb(45.098039%,45.098039%,87.058824%);fill-opacity:1;" d="M 22.316406 619 C 22.316406 617.800781 20.515625 617.800781 20.515625 619 C 20.515625 620.199219 22.316406 620.199219 22.316406 619 "/>
<path style=" stroke:none;fill-rule:evenodd;fill:rgb(45.098039%,45.098039%,87.058824%);fill-opacity:1;" d="M 22.316406 636.007812 C 22.316406 634.808594 20.515625 634.808594 20.515625 636.007812 C 20.515625 637.207031 22.316406 637.207031 22.316406 636.007812 "/>
<path style=" stroke:none;fill-rule:evenodd;fill:rgb(45.098039%,45.098039%,87.058824%);fill-opacity:1;" d="M 17.871094 25.007812 C 17.871094 19.34375 9.375 19.34375 9.375 25.007812 C 9.375 30.671875 17.871094 30.671875 17.871094 25.007812 "/>
<path style=" stroke:none;fill-rule:evenodd;fill:rgb(45.098039%,45.098039%,87.058824%);fill-opacity:1;" d="M 17.871094 648.628906 C 17.871094 642.964844 9.375 642.964844 9.375 648.628906 C 9.375 654.292969 17.871094 654.292969 17.871094 648.628906 "/>
</g>
</svg>
