  0
SECTION
  2
HEADER
  9
$ACADVER
  1
AC1009
  9
$EXTMIN
 10
0.0
 20
0.0
 30
0.0
  9
$EXTMAX
 10
1000.0
 20
1000.0
 30
0.0
  9
$FILLMODE
 70
 0
  9
$SPLFRAME
 70
 1
  0
ENDSEC
  0
SECTION
  2
TABLES
  0
TABLE
  2
LAYER
 70
1
  0
LAYER
  2
0
 70
     0
 62
     7
  6
CONTINUOUS
  0
ENDTAB
  0
ENDSEC
  0
SECTION
  2
ENTITIES
  0
POLYLINE
  8
0
 62
     13
 66
     1
 10
0
 20
0
 30
0.0
 40
0.432
 41
0.432
  0
VERTEX
  8
0
 10
0.0649957
 20
9.12011
 30
0.0
 40
0.006
 41
0.006
  0
VERTEX
  8
0
 10
0.0649957
 20
0.0649957
 30
0.0
 40
0.006
 41
0.006
  0
SEQEND
 8
0
  0
POLYLINE
  8
0
 62
     13
 66
     1
 10
0
 20
0
 30
0.0
 40
0.432
 41
0.432
  0
VERTEX
  8
0
 10
0.0649957
 20
0.0649957
 30
0.0
 40
0.006
 41
0.006
  0
VERTEX
  8
0
 10
0.419325
 20
0.0649957
 30
0.0
 40
0.006
 41
0.006
  0
SEQEND
 8
0
  0
POLYLINE
  8
0
 62
     13
 66
     1
 10
0
 20
0
 30
0.0
 40
0.432
 41
0.432
  0
VERTEX
  8
0
 10
0.419325
 20
0.0649957
 30
0.0
 40
0.006
 41
0.006
  0
VERTEX
  8
0
 10
0.419325
 20
9.12011
 30
0.0
 40
0.006
 41
0.006
  0
SEQEND
 8
0
  0
POLYLINE
  8
0
 62
     13
 66
     1
 10
0
 20
0
 30
0.0
 40
0.432
 41
0.432
  0
VERTEX
  8
0
 10
0.419325
 20
9.12011
 30
0.0
 40
0.006
 41
0.006
  0
VERTEX
  8
0
 10
0.0649957
 20
9.12011
 30
0.0
 40
0.006
 41
0.006
  0
SEQEND
 8
0
  0
POLYLINE
  8
0
 62
     173
 66
     1
 10
0
 20
0
 30
0.0
 70
     1
 40
0
 41
0
  0
VERTEX
  8
0
 10
0.146376
 20
8.82482
 30
0.0
 40
0
 41
0
  0
VERTEX
  8
0
 10
0.142415
 20
8.83421
 30
0.0
 40
0
 41
0
  0
VERTEX
  8
0
 10
0.133843
 20
8.83735
 30
0.0
 40
0
 41
0
  0
VERTEX
  8
0
 10
0.125271
 20
8.83421
 30
0.0
 40
0
 41
0
  0
VERTEX
  8
0
 10
0.121365
 20
8.82482
 30
0.0
 40
0
 41
0
  0
VERTEX
  8
0
 10
0.125271
 20
8.81549
 30
0.0
 40
0
 41
0
  0
VERTEX
  8
0
 10
0.133843
 20
8.81233
 30
0.0
 40
0
 41
0
  0
VERTEX
  8
0
 10
0.142415
 20
8.81549
 30
0.0
 40
0
 41
0
  0
VERTEX
  8
0
 10
0.146376
 20
8.82482
 30
0.0
 40
0
 41
0
  0
SEQEND
 8
0
  0
POLYLINE
  8
0
 62
     173
 66
     1
 10
0
 20
0
 30
0.0
 70
     1
 40
0
 41
0
  0
VERTEX
  8
0
 10
0.146376
 20
8.5886
 30
0.0
 40
0
 41
0
  0
VERTEX
  8
0
 10
0.142415
 20
8.59799
 30
0.0
 40
0
 41
0
  0
VERTEX
  8
0
 10
0.133843
 20
8.60113
 30
0.0
 40
0
 41
0
  0
VERTEX
  8
0
 10
0.125271
 20
8.59799
 30
0.0
 40
0
 41
0
  0
VERTEX
  8
0
 10
0.121365
 20
8.5886
 30
0.0
 40
0
 41
0
  0
VERTEX
  8
0
 10
0.125271
 20
8.57926
 30
0.0
 40
0
 41
0
  0
VERTEX
  8
0
 10
0.133843
 20
8.57611
 30
0.0
 40
0
 41
0
  0
VERTEX
  8
0
 10
0.142415
 20
8.57926
 30
0.0
 40
0
 41
0
  0
VERTEX
  8
0
 10
0.146376
 20
8.5886
 30
0.0
 40
0
 41
0
  0
SEQEND
 8
0
  0
POLYLINE
  8
0
 62
     173
 66
     1
 10
0
 20
0
 30
0.0
 70
     1
 40
0
 41
0
  0
VERTEX
  8
0
 10
0.146376
 20
8.35237
 30
0.0
 40
0
 41
0
  0
VERTEX
  8
0
 10
0.142415
 20
8.36182
 30
0.0
 40
0
 41
0
  0
VERTEX
  8
0
 10
0.133843
 20
8.3649
 30
0.0
 40
0
 41
0
  0
VERTEX
  8
0
 10
0.125271
 20
8.36182
 30
0.0
 40
0
 41
0
  0
VERTEX
  8
0
 10
0.121365
 20
8.35237
 30
0.0
 40
0
 41
0
  0
VERTEX
  8
0
 10
0.125271
 20
8.34304
 30
0.0
 40
0
 41
0
  0
VERTEX
  8
0
 10
0.133843
 20
8.3399
 30
0.0
 40
0
 41
0
  0
VERTEX
  8
0
 10
0.142415
 20
8.34304
 30
0.0
 40
0
 41
0
  0
VERTEX
  8
0
 10
0.146376
 20
8.35237
 30
0.0
 40
0
 41
0
  0
SEQEND
 8
0
  0
POLYLINE
  8
0
 62
     173
 66
     1
 10
0
 20
0
 30
0.0
 70
     1
 40
0
 41
0
  0
VERTEX
  8
0
 10
0.146376
 20
8.11621
 30
0.0
 40
0
 41
0
  0
VERTEX
  8
0
 10
0.142415
 20
8.1256
 30
0.0
 40
0
 41
0
  0
VERTEX
  8
0
 10
0.133843
 20
8.12875
 30
0.0
 40
0
 41
0
  0
VERTEX
  8
0
 10
0.125271
 20
8.1256
 30
0.0
 40
0
 41
0
  0
VERTEX
  8
0
 10
0.121365
 20
8.11621
 30
0.0
 40
0
 41
0
  0
VERTEX
  8
0
 10
0.125271
 20
8.10688
 30
0.0
 40
0
 41
0
  0
VERTEX
  8
0
 10
0.133843
 20
8.10374
 30
0.0
 40
0
 41
0
  0
VERTEX
  8
0
 10
0.142415
 20
8.10688
 30
0.0
 40
0
 41
0
  0
VERTEX
  8
0
 10
0.146376
 20
8.11621
 30
0.0
 40
0
 41
0
  0
SEQEND
 8
0
  0
POLYLINE
  8
0
 62
     173
 66
     1
 10
0
 20
0
 30
0.0
 70
     1
 40
0
 41
0
  0
VERTEX
  8
0
 10
0.146376
 20
7.87999
 30
0.0
 40
0
 41
0
  0
VERTEX
  8
0
 10
0.142415
 20
7.88937
 30
0.0
 40
0
 41
0
  0
VERTEX
  8
0
 10
0.133843
 20
7.89253
 30
0.0
 40
0
 41
0
  0
VERTEX
  8
0
 10
0.125271
 20
7.88937
 30
0.0
 40
0
 41
0
  0
VERTEX
  8
0
 10
0.121365
 20
7.87999
 30
0.0
 40
0
 41
0
  0
VERTEX
  8
0
 10
0.125271
 20
7.87067
 30
0.0
 40
0
 41
0
  0
VERTEX
  8
0
 10
0.133843
 20
7.86751
 30
0.0
 40
0
 41
0
  0
VERTEX
  8
0
 10
0.142415
 20
7.87067
 30
0.0
 40
0
 41
0
  0
VERTEX
  8
0
 10
0.146376
 20
7.87999
 30
0.0
 40
0
 41
0
  0
SEQEND
 8
0
  0
POLYLINE
  8
0
 62
     173
 66
     1
 10
0
 20
0
 30
0.0
 70
     1
 40
0
 41
0
  0
VERTEX
  8
0
 10
0.146376
 20
7.64372
 30
0.0
 40
0
 41
0
  0
VERTEX
  8
0
 10
0.142415
 20
7.6531
 30
0.0
 40
0
 41
0
  0
VERTEX
  8
0
 10
0.133843
 20
7.65625
 30
0.0
 40
0
 41
0
  0
VERTEX
  8
0
 10
0.125271
 20
7.6531
 30
0.0
 40
0
 41
0
  0
VERTEX
  8
0
 10
0.121365
 20
7.64372
 30
0.0
 40
0
 41
0
  0
VERTEX
  8
0
 10
0.125271
 20
7.63439
 30
0.0
 40
0
 41
0
  0
VERTEX
  8
0
 10
0.133843
 20
7.63124
 30
0.0
 40
0
 41
0
  0
VERTEX
  8
0
 10
0.142415
 20
7.63439
 30
0.0
 40
0
 41
0
  0
VERTEX
  8
0
 10
0.146376
 20
7.64372
 30
0.0
 40
0
 41
0
  0
SEQEND
 8
0
  0
POLYLINE
  8
0
 62
     173
 66
     1
 10
0
 20
0
 30
0.0
 70
     1
 40
0
 41
0
  0
VERTEX
  8
0
 10
0.146376
 20
7.4075
 30
0.0
 40
0
 41
0
  0
VERTEX
  8
0
 10
0.142415
 20
7.41689
 30
0.0
 40
0
 41
0
  0
VERTEX
  8
0
 10
0.133843
 20
7.42003
 30
0.0
 40
0
 41
0
  0
VERTEX
  8
0
 10
0.125271
 20
7.41689
 30
0.0
 40
0
 41
0
  0
VERTEX
  8
0
 10
0.121365
 20
7.4075
 30
0.0
 40
0
 41
0
  0
VERTEX
  8
0
 10
0.125271
 20
7.39817
 30
0.0
 40
0
 41
0
  0
VERTEX
  8
0
 10
0.133843
 20
7.39501
 30
0.0
 40
0
 41
0
  0
VERTEX
  8
0
 10
0.142415
 20
7.39817
 30
0.0
 40
0
 41
0
  0
VERTEX
  8
0
 10
0.146376
 20
7.4075
 30
0.0
 40
0
 41
0
  0
SEQEND
 8
0
  0
POLYLINE
  8
0
 62
     173
 66
     1
 10
0
 20
0
 30
0.0
 70
     1
 40
0
 41
0
  0
VERTEX
  8
0
 10
0.146376
 20
7.17128
 30
0.0
 40
0
 41
0
  0
VERTEX
  8
0
 10
0.142415
 20
7.18072
 30
0.0
 40
0
 41
0
  0
VERTEX
  8
0
 10
0.133843
 20
7.18381
 30
0.0
 40
0
 41
0
  0
VERTEX
  8
0
 10
0.125271
 20
7.18072
 30
0.0
 40
0
 41
0
  0
VERTEX
  8
0
 10
0.121365
 20
7.17128
 30
0.0
 40
0
 41
0
  0
VERTEX
  8
0
 10
0.125271
 20
7.16194
 30
0.0
 40
0
 41
0
  0
VERTEX
  8
0
 10
0.133843
 20
7.15881
 30
0.0
 40
0
 41
0
  0
VERTEX
  8
0
 10
0.142415
 20
7.16194
 30
0.0
 40
0
 41
0
  0
VERTEX
  8
0
 10
0.146376
 20
7.17128
 30
0.0
 40
0
 41
0
  0
SEQEND
 8
0
  0
POLYLINE
  8
0
 62
     173
 66
     1
 10
0
 20
0
 30
0.0
 70
     1
 40
0
 41
0
  0
VERTEX
  8
0
 10
0.146376
 20
6.93511
 30
0.0
 40
0
 41
0
  0
VERTEX
  8
0
 10
0.142415
 20
6.9445
 30
0.0
 40
0
 41
0
  0
VERTEX
  8
0
 10
0.133843
 20
6.94764
 30
0.0
 40
0
 41
0
  0
VERTEX
  8
0
 10
0.125271
 20
6.9445
 30
0.0
 40
0
 41
0
  0
VERTEX
  8
0
 10
0.121365
 20
6.93511
 30
0.0
 40
0
 41
0
  0
VERTEX
  8
0
 10
0.125271
 20
6.92578
 30
0.0
 40
0
 41
0
  0
VERTEX
  8
0
 10
0.133843
 20
6.92264
 30
0.0
 40
0
 41
0
  0
VERTEX
  8
0
 10
0.142415
 20
6.92578
 30
0.0
 40
0
 41
0
  0
VERTEX
  8
0
 10
0.146376
 20
6.93511
 30
0.0
 40
0
 41
0
  0
SEQEND
 8
0
  0
POLYLINE
  8
0
 62
     173
 66
     1
 10
0
 20
0
 30
0.0
 70
     1
 40
0
 41
0
  0
VERTEX
  8
0
 10
0.146376
 20
6.69889
 30
0.0
 40
0
 41
0
  0
VERTEX
  8
0
 10
0.142415
 20
6.70828
 30
0.0
 40
0
 41
0
  0
VERTEX
  8
0
 10
0.133843
 20
6.71143
 30
0.0
 40
0
 41
0
  0
VERTEX
  8
0
 10
0.125271
 20
6.70828
 30
0.0
 40
0
 41
0
  0
VERTEX
  8
0
 10
0.121365
 20
6.69889
 30
0.0
 40
0
 41
0
  0
VERTEX
  8
0
 10
0.125271
 20
6.68956
 30
0.0
 40
0
 41
0
  0
VERTEX
  8
0
 10
0.133843
 20
6.68642
 30
0.0
 40
0
 41
0
  0
VERTEX
  8
0
 10
0.142415
 20
6.68956
 30
0.0
 40
0
 41
0
  0
VERTEX
  8
0
 10
0.146376
 20
6.69889
 30
0.0
 40
0
 41
0
  0
SEQEND
 8
0
  0
POLYLINE
  8
0
 62
     173
 66
     1
 10
0
 20
0
 30
0.0
 70
     1
 40
0
 41
0
  0
VERTEX
  8
0
 10
0.146376
 20
6.46262
 30
0.0
 40
0
 41
0
  0
VERTEX
  8
0
 10
0.142415
 20
6.472
 30
0.0
 40
0
 41
0
  0
VERTEX
  8
0
 10
0.133843
 20
6.47515
 30
0.0
 40
0
 41
0
  0
VERTEX
  8
0
 10
0.125271
 20
6.472
 30
0.0
 40
0
 41
0
  0
VERTEX
  8
0
 10
0.121365
 20
6.46262
 30
0.0
 40
0
 41
0
  0
VERTEX
  8
0
 10
0.125271
 20
6.45324
 30
0.0
 40
0
 41
0
  0
VERTEX
  8
0
 10
0.133843
 20
6.45008
 30
0.0
 40
0
 41
0
  0
VERTEX
  8
0
 10
0.142415
 20
6.45324
 30
0.0
 40
0
 41
0
  0
VERTEX
  8
0
 10
0.146376
 20
6.46262
 30
0.0
 40
0
 41
0
  0
SEQEND
 8
0
  0
POLYLINE
  8
0
 62
     173
 66
     1
 10
0
 20
0
 30
0.0
 70
     1
 40
0
 41
0
  0
VERTEX
  8
0
 10
0.146376
 20
6.2264
 30
0.0
 40
0
 41
0
  0
VERTEX
  8
0
 10
0.142415
 20
6.23579
 30
0.0
 40
0
 41
0
  0
VERTEX
  8
0
 10
0.133843
 20
6.23893
 30
0.0
 40
0
 41
0
  0
VERTEX
  8
0
 10
0.125271
 20
6.23579
 30
0.0
 40
0
 41
0
  0
VERTEX
  8
0
 10
0.121365
 20
6.2264
 30
0.0
 40
0
 41
0
  0
VERTEX
  8
0
 10
0.125271
 20
6.21707
 30
0.0
 40
0
 41
0
  0
VERTEX
  8
0
 10
0.133843
 20
6.21392
 30
0.0
 40
0
 41
0
  0
VERTEX
  8
0
 10
0.142415
 20
6.21707
 30
0.0
 40
0
 41
0
  0
VERTEX
  8
0
 10
0.146376
 20
6.2264
 30
0.0
 40
0
 41
0
  0
SEQEND
 8
0
  0
POLYLINE
  8
0
 62
     173
 66
     1
 10
0
 20
0
 30
0.0
 70
     1
 40
0
 41
0
  0
VERTEX
  8
0
 10
0.146376
 20
5.99018
 30
0.0
 40
0
 41
0
  0
VERTEX
  8
0
 10
0.142415
 20
5.99962
 30
0.0
 40
0
 41
0
  0
VERTEX
  8
0
 10
0.133843
 20
6.00271
 30
0.0
 40
0
 41
0
  0
VERTEX
  8
0
 10
0.125271
 20
5.99962
 30
0.0
 40
0
 41
0
  0
VERTEX
  8
0
 10
0.121365
 20
5.99018
 30
0.0
 40
0
 41
0
  0
VERTEX
  8
0
 10
0.125271
 20
5.98085
 30
0.0
 40
0
 41
0
  0
VERTEX
  8
0
 10
0.133843
 20
5.97771
 30
0.0
 40
0
 41
0
  0
VERTEX
  8
0
 10
0.142415
 20
5.98085
 30
0.0
 40
0
 41
0
  0
VERTEX
  8
0
 10
0.146376
 20
5.99018
 30
0.0
 40
0
 41
0
  0
SEQEND
 8
0
  0
POLYLINE
  8
0
 62
     173
 66
     1
 10
0
 20
0
 30
0.0
 70
     1
 40
0
 41
0
  0
VERTEX
  8
0
 10
0.146376
 20
5.75401
 30
0.0
 40
0
 41
0
  0
VERTEX
  8
0
 10
0.142415
 20
5.7634
 30
0.0
 40
0
 41
0
  0
VERTEX
  8
0
 10
0.133843
 20
5.76654
 30
0.0
 40
0
 41
0
  0
VERTEX
  8
0
 10
0.125271
 20
5.7634
 30
0.0
 40
0
 41
0
  0
VERTEX
  8
0
 10
0.121365
 20
5.75401
 30
0.0
 40
0
 41
0
  0
VERTEX
  8
0
 10
0.125271
 20
5.74468
 30
0.0
 40
0
 41
0
  0
VERTEX
  8
0
 10
0.133843
 20
5.74154
 30
0.0
 40
0
 41
0
  0
VERTEX
  8
0
 10
0.142415
 20
5.74468
 30
0.0
 40
0
 41
0
  0
VERTEX
  8
0
 10
0.146376
 20
5.75401
 30
0.0
 40
0
 41
0
  0
SEQEND
 8
0
  0
POLYLINE
  8
0
 62
     173
 66
     1
 10
0
 20
0
 30
0.0
 70
     1
 40
0
 41
0
  0
VERTEX
  8
0
 10
0.146376
 20
5.51779
 30
0.0
 40
0
 41
0
  0
VERTEX
  8
0
 10
0.142415
 20
5.52718
 30
0.0
 40
0
 41
0
  0
VERTEX
  8
0
 10
0.133843
 20
5.53033
 30
0.0
 40
0
 41
0
  0
VERTEX
  8
0
 10
0.125271
 20
5.52718
 30
0.0
 40
0
 41
0
  0
VERTEX
  8
0
 10
0.121365
 20
5.51779
 30
0.0
 40
0
 41
0
  0
VERTEX
  8
0
 10
0.125271
 20
5.50846
 30
0.0
 40
0
 41
0
  0
VERTEX
  8
0
 10
0.133843
 20
5.50532
 30
0.0
 40
0
 41
0
  0
VERTEX
  8
0
 10
0.142415
 20
5.50846
 30
0.0
 40
0
 41
0
  0
VERTEX
  8
0
 10
0.146376
 20
5.51779
 30
0.0
 40
0
 41
0
  0
SEQEND
 8
0
  0
POLYLINE
  8
0
 62
     173
 66
     1
 10
0
 20
0
 30
0.0
 70
     1
 40
0
 41
0
  0
VERTEX
  8
0
 10
0.146376
 20
5.28153
 30
0.0
 40
0
 41
0
  0
VERTEX
  8
0
 10
0.142415
 20
5.2909
 30
0.0
 40
0
 41
0
  0
VERTEX
  8
0
 10
0.133843
 20
5.29406
 30
0.0
 40
0
 41
0
  0
VERTEX
  8
0
 10
0.125271
 20
5.2909
 30
0.0
 40
0
 41
0
  0
VERTEX
  8
0
 10
0.121365
 20
5.28153
 30
0.0
 40
0
 41
0
  0
VERTEX
  8
0
 10
0.125271
 20
5.27214
 30
0.0
 40
0
 41
0
  0
VERTEX
  8
0
 10
0.133843
 20
5.26899
 30
0.0
 40
0
 41
0
  0
VERTEX
  8
0
 10
0.142415
 20
5.27214
 30
0.0
 40
0
 41
0
  0
VERTEX
  8
0
 10
0.146376
 20
5.28153
 30
0.0
 40
0
 41
0
  0
SEQEND
 8
0
  0
POLYLINE
  8
0
 62
     173
 66
     1
 10
0
 20
0
 30
0.0
 70
     1
 40
0
 41
0
  0
VERTEX
  8
0
 10
0.146376
 20
5.04531
 30
0.0
 40
0
 41
0
  0
VERTEX
  8
0
 10
0.142415
 20
5.05469
 30
0.0
 40
0
 41
0
  0
VERTEX
  8
0
 10
0.133843
 20
5.05783
 30
0.0
 40
0
 41
0
  0
VERTEX
  8
0
 10
0.125271
 20
5.05469
 30
0.0
 40
0
 41
0
  0
VERTEX
  8
0
 10
0.121365
 20
5.04531
 30
0.0
 40
0
 41
0
  0
VERTEX
  8
0
 10
0.125271
 20
5.03597
 30
0.0
 40
0
 41
0
  0
VERTEX
  8
0
 10
0.133843
 20
5.03282
 30
0.0
 40
0
 41
0
  0
VERTEX
  8
0
 10
0.142415
 20
5.03597
 30
0.0
 40
0
 41
0
  0
VERTEX
  8
0
 10
0.146376
 20
5.04531
 30
0.0
 40
0
 41
0
  0
SEQEND
 8
0
  0
POLYLINE
  8
0
 62
     173
 66
     1
 10
0
 20
0
 30
0.0
 70
     1
 40
0
 41
0
  0
VERTEX
  8
0
 10
0.146376
 20
4.80908
 30
0.0
 40
0
 41
0
  0
VERTEX
  8
0
 10
0.142415
 20
4.81853
 30
0.0
 40
0
 41
0
  0
VERTEX
  8
0
 10
0.133843
 20
4.82161
 30
0.0
 40
0
 41
0
  0
VERTEX
  8
0
 10
0.125271
 20
4.81853
 30
0.0
 40
0
 41
0
  0
VERTEX
  8
0
 10
0.121365
 20
4.80908
 30
0.0
 40
0
 41
0
  0
VERTEX
  8
0
 10
0.125271
 20
4.79975
 30
0.0
 40
0
 41
0
  0
VERTEX
  8
0
 10
0.133843
 20
4.7966
 30
0.0
 40
0
 41
0
  0
VERTEX
  8
0
 10
0.142415
 20
4.79975
 30
0.0
 40
0
 41
0
  0
VERTEX
  8
0
 10
0.146376
 20
4.80908
 30
0.0
 40
0
 41
0
  0
SEQEND
 8
0
  0
POLYLINE
  8
0
 62
     173
 66
     1
 10
0
 20
0
 30
0.0
 70
     1
 40
0
 41
0
  0
VERTEX
  8
0
 10
0.146376
 20
4.57292
 30
0.0
 40
0
 41
0
  0
VERTEX
  8
0
 10
0.142415
 20
4.58231
 30
0.0
 40
0
 41
0
  0
VERTEX
  8
0
 10
0.133843
 20
4.58544
 30
0.0
 40
0
 41
0
  0
VERTEX
  8
0
 10
0.125271
 20
4.58231
 30
0.0
 40
0
 41
0
  0
VERTEX
  8
0
 10
0.121365
 20
4.57292
 30
0.0
 40
0
 41
0
  0
VERTEX
  8
0
 10
0.125271
 20
4.56358
 30
0.0
 40
0
 41
0
  0
VERTEX
  8
0
 10
0.133843
 20
4.56044
 30
0.0
 40
0
 41
0
  0
VERTEX
  8
0
 10
0.142415
 20
4.56358
 30
0.0
 40
0
 41
0
  0
VERTEX
  8
0
 10
0.146376
 20
4.57292
 30
0.0
 40
0
 41
0
  0
SEQEND
 8
0
  0
POLYLINE
  8
0
 62
     173
 66
     1
 10
0
 20
0
 30
0.0
 70
     1
 40
0
 41
0
  0
VERTEX
  8
0
 10
0.146376
 20
4.33669
 30
0.0
 40
0
 41
0
  0
VERTEX
  8
0
 10
0.142415
 20
4.34608
 30
0.0
 40
0
 41
0
  0
VERTEX
  8
0
 10
0.133843
 20
4.34924
 30
0.0
 40
0
 41
0
  0
VERTEX
  8
0
 10
0.125271
 20
4.34608
 30
0.0
 40
0
 41
0
  0
VERTEX
  8
0
 10
0.121365
 20
4.33669
 30
0.0
 40
0
 41
0
  0
VERTEX
  8
0
 10
0.125271
 20
4.32736
 30
0.0
 40
0
 41
0
  0
VERTEX
  8
0
 10
0.133843
 20
4.32422
 30
0.0
 40
0
 41
0
  0
VERTEX
  8
0
 10
0.142415
 20
4.32736
 30
0.0
 40
0
 41
0
  0
VERTEX
  8
0
 10
0.146376
 20
4.33669
 30
0.0
 40
0
 41
0
  0
SEQEND
 8
0
  0
POLYLINE
  8
0
 62
     173
 66
     1
 10
0
 20
0
 30
0.0
 70
     1
 40
0
 41
0
  0
VERTEX
  8
0
 10
0.146376
 20
4.10042
 30
0.0
 40
0
 41
0
  0
VERTEX
  8
0
 10
0.142415
 20
4.10981
 30
0.0
 40
0
 41
0
  0
VERTEX
  8
0
 10
0.133843
 20
4.11296
 30
0.0
 40
0
 41
0
  0
VERTEX
  8
0
 10
0.125271
 20
4.10981
 30
0.0
 40
0
 41
0
  0
VERTEX
  8
0
 10
0.121365
 20
4.10042
 30
0.0
 40
0
 41
0
  0
VERTEX
  8
0
 10
0.125271
 20
4.09104
 30
0.0
 40
0
 41
0
  0
VERTEX
  8
0
 10
0.133843
 20
4.08789
 30
0.0
 40
0
 41
0
  0
VERTEX
  8
0
 10
0.142415
 20
4.09104
 30
0.0
 40
0
 41
0
  0
VERTEX
  8
0
 10
0.146376
 20
4.10042
 30
0.0
 40
0
 41
0
  0
SEQEND
 8
0
  0
POLYLINE
  8
0
 62
     173
 66
     1
 10
0
 20
0
 30
0.0
 70
     1
 40
0
 41
0
  0
VERTEX
  8
0
 10
0.146376
 20
3.86421
 30
0.0
 40
0
 41
0
  0
VERTEX
  8
0
 10
0.142415
 20
3.87358
 30
0.0
 40
0
 41
0
  0
VERTEX
  8
0
 10
0.133843
 20
3.87674
 30
0.0
 40
0
 41
0
  0
VERTEX
  8
0
 10
0.125271
 20
3.87358
 30
0.0
 40
0
 41
0
  0
VERTEX
  8
0
 10
0.121365
 20
3.86421
 30
0.0
 40
0
 41
0
  0
VERTEX
  8
0
 10
0.125271
 20
3.85487
 30
0.0
 40
0
 41
0
  0
VERTEX
  8
0
 10
0.133843
 20
3.85172
 30
0.0
 40
0
 41
0
  0
VERTEX
  8
0
 10
0.142415
 20
3.85487
 30
0.0
 40
0
 41
0
  0
VERTEX
  8
0
 10
0.146376
 20
3.86421
 30
0.0
 40
0
 41
0
  0
SEQEND
 8
0
  0
POLYLINE
  8
0
 62
     173
 66
     1
 10
0
 20
0
 30
0.0
 70
     1
 40
0
 41
0
  0
VERTEX
  8
0
 10
0.146376
 20
3.62799
 30
0.0
 40
0
 41
0
  0
VERTEX
  8
0
 10
0.142415
 20
3.63743
 30
0.0
 40
0
 41
0
  0
VERTEX
  8
0
 10
0.133843
 20
3.64051
 30
0.0
 40
0
 41
0
  0
VERTEX
  8
0
 10
0.125271
 20
3.63743
 30
0.0
 40
0
 41
0
  0
VERTEX
  8
0
 10
0.121365
 20
3.62799
 30
0.0
 40
0
 41
0
  0
VERTEX
  8
0
 10
0.125271
 20
3.61865
 30
0.0
 40
0
 41
0
  0
VERTEX
  8
0
 10
0.133843
 20
3.6155
 30
0.0
 40
0
 41
0
  0
VERTEX
  8
0
 10
0.142415
 20
3.61865
 30
0.0
 40
0
 41
0
  0
VERTEX
  8
0
 10
0.146376
 20
3.62799
 30
0.0
 40
0
 41
0
  0
SEQEND
 8
0
  0
POLYLINE
  8
0
 62
     173
 66
     1
 10
0
 20
0
 30
0.0
 70
     1
 40
0
 41
0
  0
VERTEX
  8
0
 10
0.146376
 20
3.39182
 30
0.0
 40
0
 41
0
  0
VERTEX
  8
0
 10
0.142415
 20
3.40121
 30
0.0
 40
0
 41
0
  0
VERTEX
  8
0
 10
0.133843
 20
3.40435
 30
0.0
 40
0
 41
0
  0
VERTEX
  8
0
 10
0.125271
 20
3.40121
 30
0.0
 40
0
 41
0
  0
VERTEX
  8
0
 10
0.121365
 20
3.39182
 30
0.0
 40
0
 41
0
  0
VERTEX
  8
0
 10
0.125271
 20
3.38243
 30
0.0
 40
0
 41
0
  0
VERTEX
  8
0
 10
0.133843
 20
3.37929
 30
0.0
 40
0
 41
0
  0
VERTEX
  8
0
 10
0.142415
 20
3.38243
 30
0.0
 40
0
 41
0
  0
VERTEX
  8
0
 10
0.146376
 20
3.39182
 30
0.0
 40
0
 41
0
  0
SEQEND
 8
0
  0
POLYLINE
  8
0
 62
     173
 66
     1
 10
0
 20
0
 30
0.0
 70
     1
 40
0
 41
0
  0
VERTEX
  8
0
 10
0.146376
 20
3.1556
 30
0.0
 40
0
 41
0
  0
VERTEX
  8
0
 10
0.142415
 20
3.16499
 30
0.0
 40
0
 41
0
  0
VERTEX
  8
0
 10
0.133843
 20
3.16812
 30
0.0
 40
0
 41
0
  0
VERTEX
  8
0
 10
0.125271
 20
3.16499
 30
0.0
 40
0
 41
0
  0
VERTEX
  8
0
 10
0.121365
 20
3.1556
 30
0.0
 40
0
 41
0
  0
VERTEX
  8
0
 10
0.125271
 20
3.14626
 30
0.0
 40
0
 41
0
  0
VERTEX
  8
0
 10
0.133843
 20
3.14312
 30
0.0
 40
0
 41
0
  0
VERTEX
  8
0
 10
0.142415
 20
3.14626
 30
0.0
 40
0
 41
0
  0
VERTEX
  8
0
 10
0.146376
 20
3.1556
 30
0.0
 40
0
 41
0
  0
SEQEND
 8
0
  0
POLYLINE
  8
0
 62
     173
 66
     1
 10
0
 20
0
 30
0.0
 70
     1
 40
0
 41
0
  0
VERTEX
  8
0
 10
0.146376
 20
2.91932
 30
0.0
 40
0
 41
0
  0
VERTEX
  8
0
 10
0.142415
 20
2.92871
 30
0.0
 40
0
 41
0
  0
VERTEX
  8
0
 10
0.133843
 20
2.93186
 30
0.0
 40
0
 41
0
  0
VERTEX
  8
0
 10
0.125271
 20
2.92871
 30
0.0
 40
0
 41
0
  0
VERTEX
  8
0
 10
0.121365
 20
2.91932
 30
0.0
 40
0
 41
0
  0
VERTEX
  8
0
 10
0.125271
 20
2.90994
 30
0.0
 40
0
 41
0
  0
VERTEX
  8
0
 10
0.133843
 20
2.90679
 30
0.0
 40
0
 41
0
  0
VERTEX
  8
0
 10
0.142415
 20
2.90994
 30
0.0
 40
0
 41
0
  0
VERTEX
  8
0
 10
0.146376
 20
2.91932
 30
0.0
 40
0
 41
0
  0
SEQEND
 8
0
  0
POLYLINE
  8
0
 62
     173
 66
     1
 10
0
 20
0
 30
0.0
 70
     1
 40
0
 41
0
  0
VERTEX
  8
0
 10
0.146376
 20
2.68311
 30
0.0
 40
0
 41
0
  0
VERTEX
  8
0
 10
0.142415
 20
2.69249
 30
0.0
 40
0
 41
0
  0
VERTEX
  8
0
 10
0.133843
 20
2.69564
 30
0.0
 40
0
 41
0
  0
VERTEX
  8
0
 10
0.125271
 20
2.69249
 30
0.0
 40
0
 41
0
  0
VERTEX
  8
0
 10
0.121365
 20
2.68311
 30
0.0
 40
0
 41
0
  0
VERTEX
  8
0
 10
0.125271
 20
2.67378
 30
0.0
 40
0
 41
0
  0
VERTEX
  8
0
 10
0.133843
 20
2.67063
 30
0.0
 40
0
 41
0
  0
VERTEX
  8
0
 10
0.142415
 20
2.67378
 30
0.0
 40
0
 41
0
  0
VERTEX
  8
0
 10
0.146376
 20
2.68311
 30
0.0
 40
0
 41
0
  0
SEQEND
 8
0
  0
POLYLINE
  8
0
 62
     173
 66
     1
 10
0
 20
0
 30
0.0
 70
     1
 40
0
 41
0
  0
VERTEX
  8
0
 10
0.146376
 20
2.44689
 30
0.0
 40
0
 41
0
  0
VERTEX
  8
0
 10
0.142415
 20
2.45632
 30
0.0
 40
0
 41
0
  0
VERTEX
  8
0
 10
0.133843
 20
2.45942
 30
0.0
 40
0
 41
0
  0
VERTEX
  8
0
 10
0.125271
 20
2.45632
 30
0.0
 40
0
 41
0
  0
VERTEX
  8
0
 10
0.121365
 20
2.44689
 30
0.0
 40
0
 41
0
  0
VERTEX
  8
0
 10
0.125271
 20
2.43756
 30
0.0
 40
0
 41
0
  0
VERTEX
  8
0
 10
0.133843
 20
2.4344
 30
0.0
 40
0
 41
0
  0
VERTEX
  8
0
 10
0.142415
 20
2.43756
 30
0.0
 40
0
 41
0
  0
VERTEX
  8
0
 10
0.146376
 20
2.44689
 30
0.0
 40
0
 41
0
  0
SEQEND
 8
0
  0
POLYLINE
  8
0
 62
     173
 66
     1
 10
0
 20
0
 30
0.0
 70
     1
 40
0
 41
0
  0
VERTEX
  8
0
 10
0.146376
 20
2.21072
 30
0.0
 40
0
 41
0
  0
VERTEX
  8
0
 10
0.142415
 20
2.22011
 30
0.0
 40
0
 41
0
  0
VERTEX
  8
0
 10
0.133843
 20
2.22325
 30
0.0
 40
0
 41
0
  0
VERTEX
  8
0
 10
0.125271
 20
2.22011
 30
0.0
 40
0
 41
0
  0
VERTEX
  8
0
 10
0.121365
 20
2.21072
 30
0.0
 40
0
 41
0
  0
VERTEX
  8
0
 10
0.125271
 20
2.20133
 30
0.0
 40
0
 41
0
  0
VERTEX
  8
0
 10
0.133843
 20
2.19819
 30
0.0
 40
0
 41
0
  0
VERTEX
  8
0
 10
0.142415
 20
2.20133
 30
0.0
 40
0
 41
0
  0
VERTEX
  8
0
 10
0.146376
 20
2.21072
 30
0.0
 40
0
 41
0
  0
SEQEND
 8
0
  0
POLYLINE
  8
0
 62
     173
 66
     1
 10
0
 20
0
 30
0.0
 70
     1
 40
0
 41
0
  0
VERTEX
  8
0
 10
0.146376
 20
1.97439
 30
0.0
 40
0
 41
0
  0
VERTEX
  8
0
 10
0.142415
 20
1.98378
 30
0.0
 40
0
 41
0
  0
VERTEX
  8
0
 10
0.133843
 20
1.98693
 30
0.0
 40
0
 41
0
  0
VERTEX
  8
0
 10
0.125271
 20
1.98378
 30
0.0
 40
0
 41
0
  0
VERTEX
  8
0
 10
0.121365
 20
1.97439
 30
0.0
 40
0
 41
0
  0
VERTEX
  8
0
 10
0.125271
 20
1.96506
 30
0.0
 40
0
 41
0
  0
VERTEX
  8
0
 10
0.133843
 20
1.96192
 30
0.0
 40
0
 41
0
  0
VERTEX
  8
0
 10
0.142415
 20
1.96506
 30
0.0
 40
0
 41
0
  0
VERTEX
  8
0
 10
0.146376
 20
1.97439
 30
0.0
 40
0
 41
0
  0
SEQEND
 8
0
  0
POLYLINE
  8
0
 62
     173
 66
     1
 10
0
 20
0
 30
0.0
 70
     1
 40
0
 41
0
  0
VERTEX
  8
0
 10
0.146376
 20
1.73822
 30
0.0
 40
0
 41
0
  0
VERTEX
  8
0
 10
0.142415
 20
1.74761
 30
0.0
 40
0
 41
0
  0
VERTEX
  8
0
 10
0.133843
 20
1.75076
 30
0.0
 40
0
 41
0
  0
VERTEX
  8
0
 10
0.125271
 20
1.74761
 30
0.0
 40
0
 41
0
  0
VERTEX
  8
0
 10
0.121365
 20
1.73822
 30
0.0
 40
0
 41
0
  0
VERTEX
  8
0
 10
0.125271
 20
1.72885
 30
0.0
 40
0
 41
0
  0
VERTEX
  8
0
 10
0.133843
 20
1.72569
 30
0.0
 40
0
 41
0
  0
VERTEX
  8
0
 10
0.142415
 20
1.72885
 30
0.0
 40
0
 41
0
  0
VERTEX
  8
0
 10
0.146376
 20
1.73822
 30
0.0
 40
0
 41
0
  0
SEQEND
 8
0
  0
POLYLINE
  8
0
 62
     173
 66
     1
 10
0
 20
0
 30
0.0
 70
     1
 40
0
 41
0
  0
VERTEX
  8
0
 10
0.146376
 20
1.50201
 30
0.0
 40
0
 41
0
  0
VERTEX
  8
0
 10
0.142415
 20
1.51139
 30
0.0
 40
0
 41
0
  0
VERTEX
  8
0
 10
0.133843
 20
1.51454
 30
0.0
 40
0
 41
0
  0
VERTEX
  8
0
 10
0.125271
 20
1.51139
 30
0.0
 40
0
 41
0
  0
VERTEX
  8
0
 10
0.121365
 20
1.50201
 30
0.0
 40
0
 41
0
  0
VERTEX
  8
0
 10
0.125271
 20
1.49268
 30
0.0
 40
0
 41
0
  0
VERTEX
  8
0
 10
0.133843
 20
1.48953
 30
0.0
 40
0
 41
0
  0
VERTEX
  8
0
 10
0.142415
 20
1.49268
 30
0.0
 40
0
 41
0
  0
VERTEX
  8
0
 10
0.146376
 20
1.50201
 30
0.0
 40
0
 41
0
  0
SEQEND
 8
0
  0
POLYLINE
  8
0
 62
     173
 66
     1
 10
0
 20
0
 30
0.0
 70
     1
 40
0
 41
0
  0
VERTEX
  8
0
 10
0.146376
 20
1.26579
 30
0.0
 40
0
 41
0
  0
VERTEX
  8
0
 10
0.142415
 20
1.27517
 30
0.0
 40
0
 41
0
  0
VERTEX
  8
0
 10
0.133843
 20
1.27832
 30
0.0
 40
0
 41
0
  0
VERTEX
  8
0
 10
0.125271
 20
1.27517
 30
0.0
 40
0
 41
0
  0
VERTEX
  8
0
 10
0.121365
 20
1.26579
 30
0.0
 40
0
 41
0
  0
VERTEX
  8
0
 10
0.125271
 20
1.25646
 30
0.0
 40
0
 41
0
  0
VERTEX
  8
0
 10
0.133843
 20
1.25331
 30
0.0
 40
0
 41
0
  0
VERTEX
  8
0
 10
0.142415
 20
1.25646
 30
0.0
 40
0
 41
0
  0
VERTEX
  8
0
 10
0.146376
 20
1.26579
 30
0.0
 40
0
 41
0
  0
SEQEND
 8
0
  0
POLYLINE
  8
0
 62
     173
 66
     1
 10
0
 20
0
 30
0.0
 70
     1
 40
0
 41
0
  0
VERTEX
  8
0
 10
0.146376
 20
1.02962
 30
0.0
 40
0
 41
0
  0
VERTEX
  8
0
 10
0.142415
 20
1.03901
 30
0.0
 40
0
 41
0
  0
VERTEX
  8
0
 10
0.133843
 20
1.04216
 30
0.0
 40
0
 41
0
  0
VERTEX
  8
0
 10
0.125271
 20
1.03901
 30
0.0
 40
0
 41
0
  0
VERTEX
  8
0
 10
0.121365
 20
1.02962
 30
0.0
 40
0
 41
0
  0
VERTEX
  8
0
 10
0.125271
 20
1.02024
 30
0.0
 40
0
 41
0
  0
VERTEX
  8
0
 10
0.133843
 20
1.01709
 30
0.0
 40
0
 41
0
  0
VERTEX
  8
0
 10
0.142415
 20
1.02024
 30
0.0
 40
0
 41
0
  0
VERTEX
  8
0
 10
0.146376
 20
1.02962
 30
0.0
 40
0
 41
0
  0
SEQEND
 8
0
  0
POLYLINE
  8
0
 62
     173
 66
     1
 10
0
 20
0
 30
0.0
 70
     1
 40
0
 41
0
  0
VERTEX
  8
0
 10
0.146376
 20
0.793294
 30
0.0
 40
0
 41
0
  0
VERTEX
  8
0
 10
0.142415
 20
0.802681
 30
0.0
 40
0
 41
0
  0
VERTEX
  8
0
 10
0.133843
 20
0.805826
 30
0.0
 40
0
 41
0
  0
VERTEX
  8
0
 10
0.125271
 20
0.802681
 30
0.0
 40
0
 41
0
  0
VERTEX
  8
0
 10
0.121365
 20
0.793294
 30
0.0
 40
0
 41
0
  0
VERTEX
  8
0
 10
0.125271
 20
0.783963
 30
0.0
 40
0
 41
0
  0
VERTEX
  8
0
 10
0.133843
 20
0.780817
 30
0.0
 40
0
 41
0
  0
VERTEX
  8
0
 10
0.142415
 20
0.783963
 30
0.0
 40
0
 41
0
  0
VERTEX
  8
0
 10
0.146376
 20
0.793294
 30
0.0
 40
0
 41
0
  0
SEQEND
 8
0
  0
POLYLINE
  8
0
 62
     173
 66
     1
 10
0
 20
0
 30
0.0
 70
     1
 40
0
 41
0
  0
VERTEX
  8
0
 10
0.362901
 20
8.54742
 30
0.0
 40
0
 41
0
  0
VERTEX
  8
0
 10
0.358942
 20
8.55681
 30
0.0
 40
0
 41
0
  0
VERTEX
  8
0
 10
0.350369
 20
8.55994
 30
0.0
 40
0
 41
0
  0
VERTEX
  8
0
 10
0.341797
 20
8.55681
 30
0.0
 40
0
 41
0
  0
VERTEX
  8
0
 10
0.33789
 20
8.54742
 30
0.0
 40
0
 41
0
  0
VERTEX
  8
0
 10
0.341797
 20
8.53808
 30
0.0
 40
0
 41
0
  0
VERTEX
  8
0
 10
0.350369
 20
8.53494
 30
0.0
 40
0
 41
0
  0
VERTEX
  8
0
 10
0.358942
 20
8.53808
 30
0.0
 40
0
 41
0
  0
VERTEX
  8
0
 10
0.362901
 20
8.54742
 30
0.0
 40
0
 41
0
  0
SEQEND
 8
0
  0
POLYLINE
  8
0
 62
     173
 66
     1
 10
0
 20
0
 30
0.0
 70
     1
 40
0
 41
0
  0
VERTEX
  8
0
 10
0.362901
 20
8.31108
 30
0.0
 40
0
 41
0
  0
VERTEX
  8
0
 10
0.358942
 20
8.32047
 30
0.0
 40
0
 41
0
  0
VERTEX
  8
0
 10
0.350369
 20
8.32363
 30
0.0
 40
0
 41
0
  0
VERTEX
  8
0
 10
0.341797
 20
8.32047
 30
0.0
 40
0
 41
0
  0
VERTEX
  8
0
 10
0.33789
 20
8.31108
 30
0.0
 40
0
 41
0
  0
VERTEX
  8
0
 10
0.341797
 20
8.30176
 30
0.0
 40
0
 41
0
  0
VERTEX
  8
0
 10
0.350369
 20
8.29861
 30
0.0
 40
0
 41
0
  0
VERTEX
  8
0
 10
0.358942
 20
8.30176
 30
0.0
 40
0
 41
0
  0
VERTEX
  8
0
 10
0.362901
 20
8.31108
 30
0.0
 40
0
 41
0
  0
SEQEND
 8
0
  0
POLYLINE
  8
0
 62
     173
 66
     1
 10
0
 20
0
 30
0.0
 70
     1
 40
0
 41
0
  0
VERTEX
  8
0
 10
0.362901
 20
8.07493
 30
0.0
 40
0
 41
0
  0
VERTEX
  8
0
 10
0.358942
 20
8.08431
 30
0.0
 40
0
 41
0
  0
VERTEX
  8
0
 10
0.350369
 20
8.08746
 30
0.0
 40
0
 41
0
  0
VERTEX
  8
0
 10
0.341797
 20
8.08431
 30
0.0
 40
0
 41
0
  0
VERTEX
  8
0
 10
0.33789
 20
8.07493
 30
0.0
 40
0
 41
0
  0
VERTEX
  8
0
 10
0.341797
 20
8.06554
 30
0.0
 40
0
 41
0
  0
VERTEX
  8
0
 10
0.350369
 20
8.06239
 30
0.0
 40
0
 41
0
  0
VERTEX
  8
0
 10
0.358942
 20
8.06554
 30
0.0
 40
0
 41
0
  0
VERTEX
  8
0
 10
0.362901
 20
8.07493
 30
0.0
 40
0
 41
0
  0
SEQEND
 8
0
  0
POLYLINE
  8
0
 62
     173
 66
     1
 10
0
 20
0
 30
0.0
 70
     1
 40
0
 41
0
  0
VERTEX
  8
0
 10
0.362901
 20
7.83871
 30
0.0
 40
0
 41
0
  0
VERTEX
  8
0
 10
0.358942
 20
7.8481
 30
0.0
 40
0
 41
0
  0
VERTEX
  8
0
 10
0.350369
 20
7.85124
 30
0.0
 40
0
 41
0
  0
VERTEX
  8
0
 10
0.341797
 20
7.8481
 30
0.0
 40
0
 41
0
  0
VERTEX
  8
0
 10
0.33789
 20
7.83871
 30
0.0
 40
0
 41
0
  0
VERTEX
  8
0
 10
0.341797
 20
7.82938
 30
0.0
 40
0
 41
0
  0
VERTEX
  8
0
 10
0.350369
 20
7.82622
 30
0.0
 40
0
 41
0
  0
VERTEX
  8
0
 10
0.358942
 20
7.82938
 30
0.0
 40
0
 41
0
  0
VERTEX
  8
0
 10
0.362901
 20
7.83871
 30
0.0
 40
0
 41
0
  0
SEQEND
 8
0
  0
POLYLINE
  8
0
 62
     173
 66
     1
 10
0
 20
0
 30
0.0
 70
     1
 40
0
 41
0
  0
VERTEX
  8
0
 10
0.362901
 20
7.60249
 30
0.0
 40
0
 41
0
  0
VERTEX
  8
0
 10
0.358942
 20
7.61193
 30
0.0
 40
0
 41
0
  0
VERTEX
  8
0
 10
0.350369
 20
7.61501
 30
0.0
 40
0
 41
0
  0
VERTEX
  8
0
 10
0.341797
 20
7.61193
 30
0.0
 40
0
 41
0
  0
VERTEX
  8
0
 10
0.33789
 20
7.60249
 30
0.0
 40
0
 41
0
  0
VERTEX
  8
0
 10
0.341797
 20
7.59315
 30
0.0
 40
0
 41
0
  0
VERTEX
  8
0
 10
0.350369
 20
7.59
 30
0.0
 40
0
 41
0
  0
VERTEX
  8
0
 10
0.358942
 20
7.59315
 30
0.0
 40
0
 41
0
  0
VERTEX
  8
0
 10
0.362901
 20
7.60249
 30
0.0
 40
0
 41
0
  0
SEQEND
 8
0
  0
POLYLINE
  8
0
 62
     173
 66
     1
 10
0
 20
0
 30
0.0
 70
     1
 40
0
 41
0
  0
VERTEX
  8
0
 10
0.362901
 20
7.36632
 30
0.0
 40
0
 41
0
  0
VERTEX
  8
0
 10
0.358942
 20
7.37571
 30
0.0
 40
0
 41
0
  0
VERTEX
  8
0
 10
0.350369
 20
7.37885
 30
0.0
 40
0
 41
0
  0
VERTEX
  8
0
 10
0.341797
 20
7.37571
 30
0.0
 40
0
 41
0
  0
VERTEX
  8
0
 10
0.33789
 20
7.36632
 30
0.0
 40
0
 41
0
  0
VERTEX
  8
0
 10
0.341797
 20
7.35693
 30
0.0
 40
0
 41
0
  0
VERTEX
  8
0
 10
0.350369
 20
7.35379
 30
0.0
 40
0
 41
0
  0
VERTEX
  8
0
 10
0.358942
 20
7.35693
 30
0.0
 40
0
 41
0
  0
VERTEX
  8
0
 10
0.362901
 20
7.36632
 30
0.0
 40
0
 41
0
  0
SEQEND
 8
0
  0
POLYLINE
  8
0
 62
     173
 66
     1
 10
0
 20
0
 30
0.0
 70
     1
 40
0
 41
0
  0
VERTEX
  8
0
 10
0.362901
 20
7.12999
 30
0.0
 40
0
 41
0
  0
VERTEX
  8
0
 10
0.358942
 20
7.13937
 30
0.0
 40
0
 41
0
  0
VERTEX
  8
0
 10
0.350369
 20
7.14253
 30
0.0
 40
0
 41
0
  0
VERTEX
  8
0
 10
0.341797
 20
7.13937
 30
0.0
 40
0
 41
0
  0
VERTEX
  8
0
 10
0.33789
 20
7.12999
 30
0.0
 40
0
 41
0
  0
VERTEX
  8
0
 10
0.341797
 20
7.12067
 30
0.0
 40
0
 41
0
  0
VERTEX
  8
0
 10
0.350369
 20
7.11751
 30
0.0
 40
0
 41
0
  0
VERTEX
  8
0
 10
0.358942
 20
7.12067
 30
0.0
 40
0
 41
0
  0
VERTEX
  8
0
 10
0.362901
 20
7.12999
 30
0.0
 40
0
 41
0
  0
SEQEND
 8
0
  0
POLYLINE
  8
0
 62
     173
 66
     1
 10
0
 20
0
 30
0.0
 70
     1
 40
0
 41
0
  0
VERTEX
  8
0
 10
0.362901
 20
6.89382
 30
0.0
 40
0
 41
0
  0
VERTEX
  8
0
 10
0.358942
 20
6.90321
 30
0.0
 40
0
 41
0
  0
VERTEX
  8
0
 10
0.350369
 20
6.90636
 30
0.0
 40
0
 41
0
  0
VERTEX
  8
0
 10
0.341797
 20
6.90321
 30
0.0
 40
0
 41
0
  0
VERTEX
  8
0
 10
0.33789
 20
6.89382
 30
0.0
 40
0
 41
0
  0
VERTEX
  8
0
 10
0.341797
 20
6.88444
 30
0.0
 40
0
 41
0
  0
VERTEX
  8
0
 10
0.350369
 20
6.88129
 30
0.0
 40
0
 41
0
  0
VERTEX
  8
0
 10
0.358942
 20
6.88444
 30
0.0
 40
0
 41
0
  0
VERTEX
  8
0
 10
0.362901
 20
6.89382
 30
0.0
 40
0
 41
0
  0
SEQEND
 8
0
  0
POLYLINE
  8
0
 62
     173
 66
     1
 10
0
 20
0
 30
0.0
 70
     1
 40
0
 41
0
  0
VERTEX
  8
0
 10
0.362901
 20
6.65761
 30
0.0
 40
0
 41
0
  0
VERTEX
  8
0
 10
0.358942
 20
6.66699
 30
0.0
 40
0
 41
0
  0
VERTEX
  8
0
 10
0.350369
 20
6.67014
 30
0.0
 40
0
 41
0
  0
VERTEX
  8
0
 10
0.341797
 20
6.66699
 30
0.0
 40
0
 41
0
  0
VERTEX
  8
0
 10
0.33789
 20
6.65761
 30
0.0
 40
0
 41
0
  0
VERTEX
  8
0
 10
0.341797
 20
6.64828
 30
0.0
 40
0
 41
0
  0
VERTEX
  8
0
 10
0.350369
 20
6.64513
 30
0.0
 40
0
 41
0
  0
VERTEX
  8
0
 10
0.358942
 20
6.64828
 30
0.0
 40
0
 41
0
  0
VERTEX
  8
0
 10
0.362901
 20
6.65761
 30
0.0
 40
0
 41
0
  0
SEQEND
 8
0
  0
POLYLINE
  8
0
 62
     173
 66
     1
 10
0
 20
0
 30
0.0
 70
     1
 40
0
 41
0
  0
VERTEX
  8
0
 10
0.362901
 20
6.42139
 30
0.0
 40
0
 41
0
  0
VERTEX
  8
0
 10
0.358942
 20
6.43078
 30
0.0
 40
0
 41
0
  0
VERTEX
  8
0
 10
0.350369
 20
6.43392
 30
0.0
 40
0
 41
0
  0
VERTEX
  8
0
 10
0.341797
 20
6.43078
 30
0.0
 40
0
 41
0
  0
VERTEX
  8
0
 10
0.33789
 20
6.42139
 30
0.0
 40
0
 41
0
  0
VERTEX
  8
0
 10
0.341797
 20
6.41206
 30
0.0
 40
0
 41
0
  0
VERTEX
  8
0
 10
0.350369
 20
6.4089
 30
0.0
 40
0
 41
0
  0
VERTEX
  8
0
 10
0.358942
 20
6.41206
 30
0.0
 40
0
 41
0
  0
VERTEX
  8
0
 10
0.362901
 20
6.42139
 30
0.0
 40
0
 41
0
  0
SEQEND
 8
0
  0
POLYLINE
  8
0
 62
     173
 66
     1
 10
0
 20
0
 30
0.0
 70
     1
 40
0
 41
0
  0
VERTEX
  8
0
 10
0.362901
 20
6.18522
 30
0.0
 40
0
 41
0
  0
VERTEX
  8
0
 10
0.358942
 20
6.19461
 30
0.0
 40
0
 41
0
  0
VERTEX
  8
0
 10
0.350369
 20
6.19775
 30
0.0
 40
0
 41
0
  0
VERTEX
  8
0
 10
0.341797
 20
6.19461
 30
0.0
 40
0
 41
0
  0
VERTEX
  8
0
 10
0.33789
 20
6.18522
 30
0.0
 40
0
 41
0
  0
VERTEX
  8
0
 10
0.341797
 20
6.17583
 30
0.0
 40
0
 41
0
  0
VERTEX
  8
0
 10
0.350369
 20
6.17269
 30
0.0
 40
0
 41
0
  0
VERTEX
  8
0
 10
0.358942
 20
6.17583
 30
0.0
 40
0
 41
0
  0
VERTEX
  8
0
 10
0.362901
 20
6.18522
 30
0.0
 40
0
 41
0
  0
SEQEND
 8
0
  0
POLYLINE
  8
0
 62
     173
 66
     1
 10
0
 20
0
 30
0.0
 70
     1
 40
0
 41
0
  0
VERTEX
  8
0
 10
0.362901
 20
5.94889
 30
0.0
 40
0
 41
0
  0
VERTEX
  8
0
 10
0.358942
 20
5.95828
 30
0.0
 40
0
 41
0
  0
VERTEX
  8
0
 10
0.350369
 20
5.96143
 30
0.0
 40
0
 41
0
  0
VERTEX
  8
0
 10
0.341797
 20
5.95828
 30
0.0
 40
0
 41
0
  0
VERTEX
  8
0
 10
0.33789
 20
5.94889
 30
0.0
 40
0
 41
0
  0
VERTEX
  8
0
 10
0.341797
 20
5.93956
 30
0.0
 40
0
 41
0
  0
VERTEX
  8
0
 10
0.350369
 20
5.93642
 30
0.0
 40
0
 41
0
  0
VERTEX
  8
0
 10
0.358942
 20
5.93956
 30
0.0
 40
0
 41
0
  0
VERTEX
  8
0
 10
0.362901
 20
5.94889
 30
0.0
 40
0
 41
0
  0
SEQEND
 8
0
  0
POLYLINE
  8
0
 62
     173
 66
     1
 10
0
 20
0
 30
0.0
 70
     1
 40
0
 41
0
  0
VERTEX
  8
0
 10
0.362901
 20
5.71272
 30
0.0
 40
0
 41
0
  0
VERTEX
  8
0
 10
0.358942
 20
5.72211
 30
0.0
 40
0
 41
0
  0
VERTEX
  8
0
 10
0.350369
 20
5.72526
 30
0.0
 40
0
 41
0
  0
VERTEX
  8
0
 10
0.341797
 20
5.72211
 30
0.0
 40
0
 41
0
  0
VERTEX
  8
0
 10
0.33789
 20
5.71272
 30
0.0
 40
0
 41
0
  0
VERTEX
  8
0
 10
0.341797
 20
5.70335
 30
0.0
 40
0
 41
0
  0
VERTEX
  8
0
 10
0.350369
 20
5.70019
 30
0.0
 40
0
 41
0
  0
VERTEX
  8
0
 10
0.358942
 20
5.70335
 30
0.0
 40
0
 41
0
  0
VERTEX
  8
0
 10
0.362901
 20
5.71272
 30
0.0
 40
0
 41
0
  0
SEQEND
 8
0
  0
POLYLINE
  8
0
 62
     173
 66
     1
 10
0
 20
0
 30
0.0
 70
     1
 40
0
 41
0
  0
VERTEX
  8
0
 10
0.362901
 20
5.47651
 30
0.0
 40
0
 41
0
  0
VERTEX
  8
0
 10
0.358942
 20
5.48589
 30
0.0
 40
0
 41
0
  0
VERTEX
  8
0
 10
0.350369
 20
5.48904
 30
0.0
 40
0
 41
0
  0
VERTEX
  8
0
 10
0.341797
 20
5.48589
 30
0.0
 40
0
 41
0
  0
VERTEX
  8
0
 10
0.33789
 20
5.47651
 30
0.0
 40
0
 41
0
  0
VERTEX
  8
0
 10
0.341797
 20
5.46718
 30
0.0
 40
0
 41
0
  0
VERTEX
  8
0
 10
0.350369
 20
5.46403
 30
0.0
 40
0
 41
0
  0
VERTEX
  8
0
 10
0.358942
 20
5.46718
 30
0.0
 40
0
 41
0
  0
VERTEX
  8
0
 10
0.362901
 20
5.47651
 30
0.0
 40
0
 41
0
  0
SEQEND
 8
0
  0
POLYLINE
  8
0
 62
     173
 66
     1
 10
0
 20
0
 30
0.0
 70
     1
 40
0
 41
0
  0
VERTEX
  8
0
 10
0.362901
 20
5.24029
 30
0.0
 40
0
 41
0
  0
VERTEX
  8
0
 10
0.358942
 20
5.24968
 30
0.0
 40
0
 41
0
  0
VERTEX
  8
0
 10
0.350369
 20
5.25282
 30
0.0
 40
0
 41
0
  0
VERTEX
  8
0
 10
0.341797
 20
5.24968
 30
0.0
 40
0
 41
0
  0
VERTEX
  8
0
 10
0.33789
 20
5.24029
 30
0.0
 40
0
 41
0
  0
VERTEX
  8
0
 10
0.341797
 20
5.23096
 30
0.0
 40
0
 41
0
  0
VERTEX
  8
0
 10
0.350369
 20
5.22781
 30
0.0
 40
0
 41
0
  0
VERTEX
  8
0
 10
0.358942
 20
5.23096
 30
0.0
 40
0
 41
0
  0
VERTEX
  8
0
 10
0.362901
 20
5.24029
 30
0.0
 40
0
 41
0
  0
SEQEND
 8
0
  0
POLYLINE
  8
0
 62
     173
 66
     1
 10
0
 20
0
 30
0.0
 70
     1
 40
0
 41
0
  0
VERTEX
  8
0
 10
0.362901
 20
5.00412
 30
0.0
 40
0
 41
0
  0
VERTEX
  8
0
 10
0.358942
 20
5.01351
 30
0.0
 40
0
 41
0
  0
VERTEX
  8
0
 10
0.350369
 20
5.01665
 30
0.0
 40
0
 41
0
  0
VERTEX
  8
0
 10
0.341797
 20
5.01351
 30
0.0
 40
0
 41
0
  0
VERTEX
  8
0
 10
0.33789
 20
5.00412
 30
0.0
 40
0
 41
0
  0
VERTEX
  8
0
 10
0.341797
 20
4.99474
 30
0.0
 40
0
 41
0
  0
VERTEX
  8
0
 10
0.350369
 20
4.9916
 30
0.0
 40
0
 41
0
  0
VERTEX
  8
0
 10
0.358942
 20
4.99474
 30
0.0
 40
0
 41
0
  0
VERTEX
  8
0
 10
0.362901
 20
5.00412
 30
0.0
 40
0
 41
0
  0
SEQEND
 8
0
  0
POLYLINE
  8
0
 62
     173
 66
     1
 10
0
 20
0
 30
0.0
 70
     1
 40
0
 41
0
  0
VERTEX
  8
0
 10
0.362901
 20
4.76779
 30
0.0
 40
0
 41
0
  0
VERTEX
  8
0
 10
0.358942
 20
4.77718
 30
0.0
 40
0
 41
0
  0
VERTEX
  8
0
 10
0.350369
 20
4.78033
 30
0.0
 40
0
 41
0
  0
VERTEX
  8
0
 10
0.341797
 20
4.77718
 30
0.0
 40
0
 41
0
  0
VERTEX
  8
0
 10
0.33789
 20
4.76779
 30
0.0
 40
0
 41
0
  0
VERTEX
  8
0
 10
0.341797
 20
4.75846
 30
0.0
 40
0
 41
0
  0
VERTEX
  8
0
 10
0.350369
 20
4.75532
 30
0.0
 40
0
 41
0
  0
VERTEX
  8
0
 10
0.358942
 20
4.75846
 30
0.0
 40
0
 41
0
  0
VERTEX
  8
0
 10
0.362901
 20
4.76779
 30
0.0
 40
0
 41
0
  0
SEQEND
 8
0
  0
POLYLINE
  8
0
 62
     173
 66
     1
 10
0
 20
0
 30
0.0
 70
     1
 40
0
 41
0
  0
VERTEX
  8
0
 10
0.362901
 20
4.53157
 30
0.0
 40
0
 41
0
  0
VERTEX
  8
0
 10
0.358942
 20
4.54101
 30
0.0
 40
0
 41
0
  0
VERTEX
  8
0
 10
0.350369
 20
4.54411
 30
0.0
 40
0
 41
0
  0
VERTEX
  8
0
 10
0.341797
 20
4.54101
 30
0.0
 40
0
 41
0
  0
VERTEX
  8
0
 10
0.33789
 20
4.53157
 30
0.0
 40
0
 41
0
  0
VERTEX
  8
0
 10
0.341797
 20
4.52225
 30
0.0
 40
0
 41
0
  0
VERTEX
  8
0
 10
0.350369
 20
4.5191
 30
0.0
 40
0
 41
0
  0
VERTEX
  8
0
 10
0.358942
 20
4.52225
 30
0.0
 40
0
 41
0
  0
VERTEX
  8
0
 10
0.362901
 20
4.53157
 30
0.0
 40
0
 41
0
  0
SEQEND
 8
0
  0
POLYLINE
  8
0
 62
     173
 66
     1
 10
0
 20
0
 30
0.0
 70
     1
 40
0
 41
0
  0
VERTEX
  8
0
 10
0.362901
 20
4.29542
 30
0.0
 40
0
 41
0
  0
VERTEX
  8
0
 10
0.358942
 20
4.30479
 30
0.0
 40
0
 41
0
  0
VERTEX
  8
0
 10
0.350369
 20
4.30794
 30
0.0
 40
0
 41
0
  0
VERTEX
  8
0
 10
0.341797
 20
4.30479
 30
0.0
 40
0
 41
0
  0
VERTEX
  8
0
 10
0.33789
 20
4.29542
 30
0.0
 40
0
 41
0
  0
VERTEX
  8
0
 10
0.341797
 20
4.28608
 30
0.0
 40
0
 41
0
  0
VERTEX
  8
0
 10
0.350369
 20
4.28293
 30
0.0
 40
0
 41
0
  0
VERTEX
  8
0
 10
0.358942
 20
4.28608
 30
0.0
 40
0
 41
0
  0
VERTEX
  8
0
 10
0.362901
 20
4.29542
 30
0.0
 40
0
 41
0
  0
SEQEND
 8
0
  0
POLYLINE
  8
0
 62
     173
 66
     1
 10
0
 20
0
 30
0.0
 70
     1
 40
0
 41
0
  0
VERTEX
  8
0
 10
0.362901
 20
4.05919
 30
0.0
 40
0
 41
0
  0
VERTEX
  8
0
 10
0.358942
 20
4.06858
 30
0.0
 40
0
 41
0
  0
VERTEX
  8
0
 10
0.350369
 20
4.07172
 30
0.0
 40
0
 41
0
  0
VERTEX
  8
0
 10
0.341797
 20
4.06858
 30
0.0
 40
0
 41
0
  0
VERTEX
  8
0
 10
0.33789
 20
4.05919
 30
0.0
 40
0
 41
0
  0
VERTEX
  8
0
 10
0.341797
 20
4.04986
 30
0.0
 40
0
 41
0
  0
VERTEX
  8
0
 10
0.350369
 20
4.04671
 30
0.0
 40
0
 41
0
  0
VERTEX
  8
0
 10
0.358942
 20
4.04986
 30
0.0
 40
0
 41
0
  0
VERTEX
  8
0
 10
0.362901
 20
4.05919
 30
0.0
 40
0
 41
0
  0
SEQEND
 8
0
  0
POLYLINE
  8
0
 62
     173
 66
     1
 10
0
 20
0
 30
0.0
 70
     1
 40
0
 41
0
  0
VERTEX
  8
0
 10
0.362901
 20
3.82303
 30
0.0
 40
0
 41
0
  0
VERTEX
  8
0
 10
0.358942
 20
3.83242
 30
0.0
 40
0
 41
0
  0
VERTEX
  8
0
 10
0.350369
 20
3.83556
 30
0.0
 40
0
 41
0
  0
VERTEX
  8
0
 10
0.341797
 20
3.83242
 30
0.0
 40
0
 41
0
  0
VERTEX
  8
0
 10
0.33789
 20
3.82303
 30
0.0
 40
0
 41
0
  0
VERTEX
  8
0
 10
0.341797
 20
3.81364
 30
0.0
 40
0
 41
0
  0
VERTEX
  8
0
 10
0.350369
 20
3.81049
 30
0.0
 40
0
 41
0
  0
VERTEX
  8
0
 10
0.358942
 20
3.81364
 30
0.0
 40
0
 41
0
  0
VERTEX
  8
0
 10
0.362901
 20
3.82303
 30
0.0
 40
0
 41
0
  0
SEQEND
 8
0
  0
POLYLINE
  8
0
 62
     173
 66
     1
 10
0
 20
0
 30
0.0
 70
     1
 40
0
 41
0
  0
VERTEX
  8
0
 10
0.362901
 20
3.58669
 30
0.0
 40
0
 41
0
  0
VERTEX
  8
0
 10
0.358942
 20
3.59608
 30
0.0
 40
0
 41
0
  0
VERTEX
  8
0
 10
0.350369
 20
3.59924
 30
0.0
 40
0
 41
0
  0
VERTEX
  8
0
 10
0.341797
 20
3.59608
 30
0.0
 40
0
 41
0
  0
VERTEX
  8
0
 10
0.33789
 20
3.58669
 30
0.0
 40
0
 41
0
  0
VERTEX
  8
0
 10
0.341797
 20
3.57736
 30
0.0
 40
0
 41
0
  0
VERTEX
  8
0
 10
0.350369
 20
3.57422
 30
0.0
 40
0
 41
0
  0
VERTEX
  8
0
 10
0.358942
 20
3.57736
 30
0.0
 40
0
 41
0
  0
VERTEX
  8
0
 10
0.362901
 20
3.58669
 30
0.0
 40
0
 41
0
  0
SEQEND
 8
0
  0
POLYLINE
  8
0
 62
     173
 66
     1
 10
0
 20
0
 30
0.0
 70
     1
 40
0
 41
0
  0
VERTEX
  8
0
 10
0.362901
 20
3.35047
 30
0.0
 40
0
 41
0
  0
VERTEX
  8
0
 10
0.358942
 20
3.35992
 30
0.0
 40
0
 41
0
  0
VERTEX
  8
0
 10
0.350369
 20
3.36301
 30
0.0
 40
0
 41
0
  0
VERTEX
  8
0
 10
0.341797
 20
3.35992
 30
0.0
 40
0
 41
0
  0
VERTEX
  8
0
 10
0.33789
 20
3.35047
 30
0.0
 40
0
 41
0
  0
VERTEX
  8
0
 10
0.341797
 20
3.34115
 30
0.0
 40
0
 41
0
  0
VERTEX
  8
0
 10
0.350369
 20
3.338
 30
0.0
 40
0
 41
0
  0
VERTEX
  8
0
 10
0.358942
 20
3.34115
 30
0.0
 40
0
 41
0
  0
VERTEX
  8
0
 10
0.362901
 20
3.35047
 30
0.0
 40
0
 41
0
  0
SEQEND
 8
0
  0
POLYLINE
  8
0
 62
     173
 66
     1
 10
0
 20
0
 30
0.0
 70
     1
 40
0
 41
0
  0
VERTEX
  8
0
 10
0.362901
 20
3.11431
 30
0.0
 40
0
 41
0
  0
VERTEX
  8
0
 10
0.358942
 20
3.12369
 30
0.0
 40
0
 41
0
  0
VERTEX
  8
0
 10
0.350369
 20
3.12685
 30
0.0
 40
0
 41
0
  0
VERTEX
  8
0
 10
0.341797
 20
3.12369
 30
0.0
 40
0
 41
0
  0
VERTEX
  8
0
 10
0.33789
 20
3.11431
 30
0.0
 40
0
 41
0
  0
VERTEX
  8
0
 10
0.341797
 20
3.10499
 30
0.0
 40
0
 41
0
  0
VERTEX
  8
0
 10
0.350369
 20
3.10183
 30
0.0
 40
0
 41
0
  0
VERTEX
  8
0
 10
0.358942
 20
3.10499
 30
0.0
 40
0
 41
0
  0
VERTEX
  8
0
 10
0.362901
 20
3.11431
 30
0.0
 40
0
 41
0
  0
SEQEND
 8
0
  0
POLYLINE
  8
0
 62
     173
 66
     1
 10
0
 20
0
 30
0.0
 70
     1
 40
0
 41
0
  0
VERTEX
  8
0
 10
0.362901
 20
2.8781
 30
0.0
 40
0
 41
0
  0
VERTEX
  8
0
 10
0.358942
 20
2.88747
 30
0.0
 40
0
 41
0
  0
VERTEX
  8
0
 10
0.350369
 20
2.89063
 30
0.0
 40
0
 41
0
  0
VERTEX
  8
0
 10
0.341797
 20
2.88747
 30
0.0
 40
0
 41
0
  0
VERTEX
  8
0
 10
0.33789
 20
2.8781
 30
0.0
 40
0
 41
0
  0
VERTEX
  8
0
 10
0.341797
 20
2.86876
 30
0.0
 40
0
 41
0
  0
VERTEX
  8
0
 10
0.350369
 20
2.86561
 30
0.0
 40
0
 41
0
  0
VERTEX
  8
0
 10
0.358942
 20
2.86876
 30
0.0
 40
0
 41
0
  0
VERTEX
  8
0
 10
0.362901
 20
2.8781
 30
0.0
 40
0
 41
0
  0
SEQEND
 8
0
  0
POLYLINE
  8
0
 62
     173
 66
     1
 10
0
 20
0
 30
0.0
 70
     1
 40
0
 41
0
  0
VERTEX
  8
0
 10
0.362901
 20
2.64193
 30
0.0
 40
0
 41
0
  0
VERTEX
  8
0
 10
0.358942
 20
2.65132
 30
0.0
 40
0
 41
0
  0
VERTEX
  8
0
 10
0.350369
 20
2.65446
 30
0.0
 40
0
 41
0
  0
VERTEX
  8
0
 10
0.341797
 20
2.65132
 30
0.0
 40
0
 41
0
  0
VERTEX
  8
0
 10
0.33789
 20
2.64193
 30
0.0
 40
0
 41
0
  0
VERTEX
  8
0
 10
0.341797
 20
2.63254
 30
0.0
 40
0
 41
0
  0
VERTEX
  8
0
 10
0.350369
 20
2.62939
 30
0.0
 40
0
 41
0
  0
VERTEX
  8
0
 10
0.358942
 20
2.63254
 30
0.0
 40
0
 41
0
  0
VERTEX
  8
0
 10
0.362901
 20
2.64193
 30
0.0
 40
0
 41
0
  0
SEQEND
 8
0
  0
POLYLINE
  8
0
 62
     173
 66
     1
 10
0
 20
0
 30
0.0
 70
     1
 40
0
 41
0
  0
VERTEX
  8
0
 10
0.362901
 20
2.4056
 30
0.0
 40
0
 41
0
  0
VERTEX
  8
0
 10
0.358942
 20
2.41499
 30
0.0
 40
0
 41
0
  0
VERTEX
  8
0
 10
0.350369
 20
2.41812
 30
0.0
 40
0
 41
0
  0
VERTEX
  8
0
 10
0.341797
 20
2.41499
 30
0.0
 40
0
 41
0
  0
VERTEX
  8
0
 10
0.33789
 20
2.4056
 30
0.0
 40
0
 41
0
  0
VERTEX
  8
0
 10
0.341797
 20
2.39626
 30
0.0
 40
0
 41
0
  0
VERTEX
  8
0
 10
0.350369
 20
2.39312
 30
0.0
 40
0
 41
0
  0
VERTEX
  8
0
 10
0.358942
 20
2.39626
 30
0.0
 40
0
 41
0
  0
VERTEX
  8
0
 10
0.362901
 20
2.4056
 30
0.0
 40
0
 41
0
  0
SEQEND
 8
0
  0
POLYLINE
  8
0
 62
     173
 66
     1
 10
0
 20
0
 30
0.0
 70
     1
 40
0
 41
0
  0
VERTEX
  8
0
 10
0.362901
 20
2.16938
 30
0.0
 40
0
 41
0
  0
VERTEX
  8
0
 10
0.358942
 20
2.17882
 30
0.0
 40
0
 41
0
  0
VERTEX
  8
0
 10
0.350369
 20
2.18192
 30
0.0
 40
0
 41
0
  0
VERTEX
  8
0
 10
0.341797
 20
2.17882
 30
0.0
 40
0
 41
0
  0
VERTEX
  8
0
 10
0.33789
 20
2.16938
 30
0.0
 40
0
 41
0
  0
VERTEX
  8
0
 10
0.341797
 20
2.16004
 30
0.0
 40
0
 41
0
  0
VERTEX
  8
0
 10
0.350369
 20
2.1569
 30
0.0
 40
0
 41
0
  0
VERTEX
  8
0
 10
0.358942
 20
2.16004
 30
0.0
 40
0
 41
0
  0
VERTEX
  8
0
 10
0.362901
 20
2.16938
 30
0.0
 40
0
 41
0
  0
SEQEND
 8
0
  0
POLYLINE
  8
0
 62
     173
 66
     1
 10
0
 20
0
 30
0.0
 70
     1
 40
0
 41
0
  0
VERTEX
  8
0
 10
0.362901
 20
1.93321
 30
0.0
 40
0
 41
0
  0
VERTEX
  8
0
 10
0.358942
 20
1.9426
 30
0.0
 40
0
 41
0
  0
VERTEX
  8
0
 10
0.350369
 20
1.94575
 30
0.0
 40
0
 41
0
  0
VERTEX
  8
0
 10
0.341797
 20
1.9426
 30
0.0
 40
0
 41
0
  0
VERTEX
  8
0
 10
0.33789
 20
1.93321
 30
0.0
 40
0
 41
0
  0
VERTEX
  8
0
 10
0.341797
 20
1.92389
 30
0.0
 40
0
 41
0
  0
VERTEX
  8
0
 10
0.350369
 20
1.92074
 30
0.0
 40
0
 41
0
  0
VERTEX
  8
0
 10
0.358942
 20
1.92389
 30
0.0
 40
0
 41
0
  0
VERTEX
  8
0
 10
0.362901
 20
1.93321
 30
0.0
 40
0
 41
0
  0
SEQEND
 8
0
  0
POLYLINE
  8
0
 62
     173
 66
     1
 10
0
 20
0
 30
0.0
 70
     1
 40
0
 41
0
  0
VERTEX
  8
0
 10
0.362901
 20
1.697
 30
0.0
 40
0
 41
0
  0
VERTEX
  8
0
 10
0.358942
 20
1.70638
 30
0.0
 40
0
 41
0
  0
VERTEX
  8
0
 10
0.350369
 20
1.70953
 30
0.0
 40
0
 41
0
  0
VERTEX
  8
0
 10
0.341797
 20
1.70638
 30
0.0
 40
0
 41
0
  0
VERTEX
  8
0
 10
0.33789
 20
1.697
 30
0.0
 40
0
 41
0
  0
VERTEX
  8
0
 10
0.341797
 20
1.68767
 30
0.0
 40
0
 41
0
  0
VERTEX
  8
0
 10
0.350369
 20
1.68451
 30
0.0
 40
0
 41
0
  0
VERTEX
  8
0
 10
0.358942
 20
1.68767
 30
0.0
 40
0
 41
0
  0
VERTEX
  8
0
 10
0.362901
 20
1.697
 30
0.0
 40
0
 41
0
  0
SEQEND
 8
0
  0
POLYLINE
  8
0
 62
     173
 66
     1
 10
0
 20
0
 30
0.0
 70
     1
 40
0
 41
0
  0
VERTEX
  8
0
 10
0.362901
 20
1.46072
 30
0.0
 40
0
 41
0
  0
VERTEX
  8
0
 10
0.358942
 20
1.47011
 30
0.0
 40
0
 41
0
  0
VERTEX
  8
0
 10
0.350369
 20
1.47325
 30
0.0
 40
0
 41
0
  0
VERTEX
  8
0
 10
0.341797
 20
1.47011
 30
0.0
 40
0
 41
0
  0
VERTEX
  8
0
 10
0.33789
 20
1.46072
 30
0.0
 40
0
 41
0
  0
VERTEX
  8
0
 10
0.341797
 20
1.45133
 30
0.0
 40
0
 41
0
  0
VERTEX
  8
0
 10
0.350369
 20
1.44819
 30
0.0
 40
0
 41
0
  0
VERTEX
  8
0
 10
0.358942
 20
1.45133
 30
0.0
 40
0
 41
0
  0
VERTEX
  8
0
 10
0.362901
 20
1.46072
 30
0.0
 40
0
 41
0
  0
SEQEND
 8
0
  0
POLYLINE
  8
0
 62
     173
 66
     1
 10
0
 20
0
 30
0.0
 70
     1
 40
0
 41
0
  0
VERTEX
  8
0
 10
0.362901
 20
1.2245
 30
0.0
 40
0
 41
0
  0
VERTEX
  8
0
 10
0.358942
 20
1.23389
 30
0.0
 40
0
 41
0
  0
VERTEX
  8
0
 10
0.350369
 20
1.23703
 30
0.0
 40
0
 41
0
  0
VERTEX
  8
0
 10
0.341797
 20
1.23389
 30
0.0
 40
0
 41
0
  0
VERTEX
  8
0
 10
0.33789
 20
1.2245
 30
0.0
 40
0
 41
0
  0
VERTEX
  8
0
 10
0.341797
 20
1.21517
 30
0.0
 40
0
 41
0
  0
VERTEX
  8
0
 10
0.350369
 20
1.21202
 30
0.0
 40
0
 41
0
  0
VERTEX
  8
0
 10
0.358942
 20
1.21517
 30
0.0
 40
0
 41
0
  0
VERTEX
  8
0
 10
0.362901
 20
1.2245
 30
0.0
 40
0
 41
0
  0
SEQEND
 8
0
  0
POLYLINE
  8
0
 62
     173
 66
     1
 10
0
 20
0
 30
0.0
 70
     1
 40
0
 41
0
  0
VERTEX
  8
0
 10
0.362901
 20
0.988282
 30
0.0
 40
0
 41
0
  0
VERTEX
  8
0
 10
0.358942
 20
0.997721
 30
0.0
 40
0
 41
0
  0
VERTEX
  8
0
 10
0.350369
 20
1.00081
 30
0.0
 40
0
 41
0
  0
VERTEX
  8
0
 10
0.341797
 20
0.997721
 30
0.0
 40
0
 41
0
  0
VERTEX
  8
0
 10
0.33789
 20
0.988282
 30
0.0
 40
0
 41
0
  0
VERTEX
  8
0
 10
0.341797
 20
0.97895
 30
0.0
 40
0
 41
0
  0
VERTEX
  8
0
 10
0.350369
 20
0.975803
 30
0.0
 40
0
 41
0
  0
VERTEX
  8
0
 10
0.358942
 20
0.97895
 30
0.0
 40
0
 41
0
  0
VERTEX
  8
0
 10
0.362901
 20
0.988282
 30
0.0
 40
0
 41
0
  0
SEQEND
 8
0
  0
POLYLINE
  8
0
 62
     173
 66
     1
 10
0
 20
0
 30
0.0
 70
     1
 40
0
 41
0
  0
VERTEX
  8
0
 10
0.362901
 20
0.752115
 30
0.0
 40
0
 41
0
  0
VERTEX
  8
0
 10
0.358942
 20
0.761501
 30
0.0
 40
0
 41
0
  0
VERTEX
  8
0
 10
0.350369
 20
0.764649
 30
0.0
 40
0
 41
0
  0
VERTEX
  8
0
 10
0.341797
 20
0.761501
 30
0.0
 40
0
 41
0
  0
VERTEX
  8
0
 10
0.33789
 20
0.752115
 30
0.0
 40
0
 41
0
  0
VERTEX
  8
0
 10
0.341797
 20
0.742785
 30
0.0
 40
0
 41
0
  0
VERTEX
  8
0
 10
0.350369
 20
0.739637
 30
0.0
 40
0
 41
0
  0
VERTEX
  8
0
 10
0.358942
 20
0.742785
 30
0.0
 40
0
 41
0
  0
VERTEX
  8
0
 10
0.362901
 20
0.752115
 30
0.0
 40
0
 41
0
  0
SEQEND
 8
0
  0
POLYLINE
  8
0
 62
     173
 66
     1
 10
0
 20
0
 30
0.0
 70
     1
 40
0
 41
0
  0
VERTEX
  8
0
 10
0.362901
 20
0.515896
 30
0.0
 40
0
 41
0
  0
VERTEX
  8
0
 10
0.358942
 20
0.525282
 30
0.0
 40
0
 41
0
  0
VERTEX
  8
0
 10
0.350369
 20
0.528429
 30
0.0
 40
0
 41
0
  0
VERTEX
  8
0
 10
0.341797
 20
0.525282
 30
0.0
 40
0
 41
0
  0
VERTEX
  8
0
 10
0.33789
 20
0.515896
 30
0.0
 40
0
 41
0
  0
VERTEX
  8
0
 10
0.341797
 20
0.506565
 30
0.0
 40
0
 41
0
  0
VERTEX
  8
0
 10
0.350369
 20
0.503418
 30
0.0
 40
0
 41
0
  0
VERTEX
  8
0
 10
0.358942
 20
0.506565
 30
0.0
 40
0
 41
0
  0
VERTEX
  8
0
 10
0.362901
 20
0.515896
 30
0.0
 40
0
 41
0
  0
SEQEND
 8
0
  0
POLYLINE
  8
0
 62
     173
 66
     1
 10
0
 20
0
 30
0.0
 70
     1
 40
0
 41
0
  0
VERTEX
  8
0
 10
0.301161
 20
9.00201
 30
0.0
 40
0
 41
0
  0
VERTEX
  8
0
 10
0.296061
 20
9.02783
 30
0.0
 40
0
 41
0
  0
VERTEX
  8
0
 10
0.282715
 20
9.04628
 30
0.0
 40
0
 41
0
  0
VERTEX
  8
0
 10
0.263781
 20
9.05735
 30
0.0
 40
0
 41
0
  0
VERTEX
  8
0
 10
0.242133
 20
9.06104
 30
0.0
 40
0
 41
0
  0
VERTEX
  8
0
 10
0.220486
 20
9.05735
 30
0.0
 40
0
 41
0
  0
VERTEX
  8
0
 10
0.201551
 20
9.04628
 30
0.0
 40
0
 41
0
  0
VERTEX
  8
0
 10
0.188206
 20
9.02783
 30
0.0
 40
0
 41
0
  0
VERTEX
  8
0
 10
0.18316
 20
9.00201
 30
0.0
 40
0
 41
0
  0
VERTEX
  8
0
 10
0.188206
 20
8.97624
 30
0.0
 40
0
 41
0
  0
VERTEX
  8
0
 10
0.201551
 20
8.95779
 30
0.0
 40
0
 41
0
  0
VERTEX
  8
0
 10
0.220486
 20
8.94672
 30
0.0
 40
0
 41
0
  0
VERTEX
  8
0
 10
0.242133
 20
8.94303
 30
0.0
 40
0
 41
0
  0
VERTEX
  8
0
 10
0.263781
 20
8.94672
 30
0.0
 40
0
 41
0
  0
VERTEX
  8
0
 10
0.282715
 20
8.95779
 30
0.0
 40
0
 41
0
  0
VERTEX
  8
0
 10
0.296061
 20
8.97624
 30
0.0
 40
0
 41
0
  0
VERTEX
  8
0
 10
0.301161
 20
9.00201
 30
0.0
 40
0
 41
0
  0
SEQEND
 8
0
  0
POLYLINE
  8
0
 62
     173
 66
     1
 10
0
 20
0
 30
0.0
 70
     1
 40
0
 41
0
  0
VERTEX
  8
0
 10
0.301161
 20
0.340603
 30
0.0
 40
0
 41
0
  0
VERTEX
  8
0
 10
0.296061
 20
0.366428
 30
0.0
 40
0
 41
0
  0
VERTEX
  8
0
 10
0.282715
 20
0.384874
 30
0.0
 40
0
 41
0
  0
VERTEX
  8
0
 10
0.263781
 20
0.395942
 30
0.0
 40
0
 41
0
  0
VERTEX
  8
0
 10
0.242133
 20
0.399631
 30
0.0
 40
0
 41
0
  0
VERTEX
  8
0
 10
0.220486
 20
0.395942
 30
0.0
 40
0
 41
0
  0
VERTEX
  8
0
 10
0.201551
 20
0.384874
 30
0.0
 40
0
 41
0
  0
VERTEX
  8
0
 10
0.188206
 20
0.366428
 30
0.0
 40
0
 41
0
  0
VERTEX
  8
0
 10
0.18316
 20
0.340603
 30
0.0
 40
0
 41
0
  0
VERTEX
  8
0
 10
0.188206
 20
0.314833
 30
0.0
 40
0
 41
0
  0
VERTEX
  8
0
 10
0.201551
 20
0.296386
 30
0.0
 40
0
 41
0
  0
VERTEX
  8
0
 10
0.220486
 20
0.285319
 30
0.0
 40
0
 41
0
  0
VERTEX
  8
0
 10
0.242133
 20
0.281629
 30
0.0
 40
0
 41
0
  0
VERTEX
  8
0
 10
0.263781
 20
0.285319
 30
0.0
 40
0
 41
0
  0
VERTEX
  8
0
 10
0.282715
 20
0.296386
 30
0.0
 40
0
 41
0
  0
VERTEX
  8
0
 10
0.296061
 20
0.314833
 30
0.0
 40
0
 41
0
  0
VERTEX
  8
0
 10
0.301161
 20
0.340603
 30
0.0
 40
0
 41
0
  0
SEQEND
 8
0
  0
ENDSEC
  0
EOF
