G04 start of page 9 for group -4078 idx -4078 *
G04 Title: (unknown), bottomsilk *
G04 Creator: pcb 1.99z *
G04 CreationDate: Thu 18 Dec 2014 10:43:42 PM GMT UTC *
G04 For: commonadmin *
G04 Format: Gerber/RS-274X *
G04 PCB-Dimensions (mil): 354.33 9055.12 *
G04 PCB-Coordinate-Origin: lower left *
%MOIN*%
%FSLAX25Y25*%
%LNBOTTOMSILK*%
%ADD29C,0.0080*%
G54D29*X10433Y690748D02*X15157D01*
X10433Y683268D02*X15157D01*
X10433Y667126D02*X15157D01*
X10433Y659646D02*X15157D01*
X10433Y643504D02*X15157D01*
X10433Y636024D02*X15157D01*
X10433Y619882D02*X15157D01*
X10433Y612402D02*X15157D01*
X10433Y596260D02*X15157D01*
X10433Y588780D02*X15157D01*
X10433Y572638D02*X15157D01*
X10433Y565158D02*X15157D01*
X10433Y549016D02*X15157D01*
X10433Y541536D02*X15157D01*
X10433Y808858D02*X15157D01*
X10433Y801378D02*X15157D01*
X10433Y785236D02*X15157D01*
X10433Y777756D02*X15157D01*
X10433Y856102D02*X15157D01*
X10433Y848622D02*X15157D01*
X10433Y832480D02*X15157D01*
X10433Y825000D02*X15157D01*
X10433Y879724D02*X15157D01*
X10433Y872244D02*X15157D01*
X10433Y761614D02*X15157D01*
X10433Y754134D02*X15157D01*
X10433Y737992D02*X15157D01*
X10433Y730512D02*X15157D01*
X10433Y714370D02*X15157D01*
X10433Y706890D02*X15157D01*
X10433Y525394D02*X15157D01*
X10433Y517914D02*X15157D01*
X10433Y501771D02*X15157D01*
X10433Y494291D02*X15157D01*
X10433Y478149D02*X15157D01*
X10433Y470669D02*X15157D01*
X10433Y454527D02*X15157D01*
X10433Y447047D02*X15157D01*
X10433Y430905D02*X15157D01*
X10433Y423425D02*X15157D01*
X10433Y407283D02*X15157D01*
X10433Y399803D02*X15157D01*
X10433Y383661D02*X15157D01*
X10433Y376181D02*X15157D01*
X10433Y360039D02*X15157D01*
X10433Y352559D02*X15157D01*
X10433Y336417D02*X15157D01*
X10433Y328937D02*X15157D01*
X10433Y312795D02*X15157D01*
X10433Y305315D02*X15157D01*
X10433Y289173D02*X15157D01*
X10433Y281693D02*X15157D01*
X10433Y265551D02*X15157D01*
X10433Y258071D02*X15157D01*
X10433Y241929D02*X15157D01*
X10433Y234449D02*X15157D01*
X10433Y218307D02*X15157D01*
X10433Y210827D02*X15157D01*
X10433Y194685D02*X15157D01*
X10433Y187205D02*X15157D01*
X10433Y171063D02*X15157D01*
X10433Y163583D02*X15157D01*
X10433Y147441D02*X15157D01*
X10433Y139961D02*X15157D01*
X10433Y123819D02*X15157D01*
X10433Y116339D02*X15157D01*
X10433Y100197D02*X15157D01*
X10433Y92717D02*X15157D01*
X10433Y76575D02*X15157D01*
X10433Y69095D02*X15157D01*
M02*
