G04 start of page 8 for group -4079 idx -4079 *
G04 Title: (unknown), topsilk *
G04 Creator: pcb 1.99z *
G04 CreationDate: Thu 18 Dec 2014 10:43:42 PM GMT UTC *
G04 For: commonadmin *
G04 Format: Gerber/RS-274X *
G04 PCB-Dimensions (mil): 354.33 9055.12 *
G04 PCB-Coordinate-Origin: lower left *
%MOIN*%
%FSLAX25Y25*%
%LNTOPSILK*%
%ADD28C,0.0080*%
G54D28*X23543Y654760D02*X33543D01*
Y675760D02*Y654760D01*
X23543Y675760D02*X33543D01*
X23543D02*Y654760D01*
Y655760D02*X33543D01*
X23543Y631138D02*X33543D01*
Y652138D02*Y631138D01*
X23543Y652138D02*X33543D01*
X23543D02*Y631138D01*
Y632138D02*X33543D01*
X12717Y662634D02*X22717D01*
Y683634D02*Y662634D01*
X12717Y683634D02*X22717D01*
X12717D02*Y662634D01*
Y663634D02*X22717D01*
X12717Y639012D02*X22717D01*
Y660012D02*Y639012D01*
X12717Y660012D02*X22717D01*
X12717D02*Y639012D01*
Y640012D02*X22717D01*
X1890Y670508D02*X11890D01*
Y691508D02*Y670508D01*
X1890Y691508D02*X11890D01*
X1890D02*Y670508D01*
Y671508D02*X11890D01*
X1890Y646886D02*X11890D01*
Y667886D02*Y646886D01*
X1890Y667886D02*X11890D01*
X1890D02*Y646886D01*
Y647886D02*X11890D01*
X1890Y623264D02*X11890D01*
Y644264D02*Y623264D01*
X1890Y644264D02*X11890D01*
X1890D02*Y623264D01*
Y624264D02*X11890D01*
X23543Y607516D02*X33543D01*
Y628516D02*Y607516D01*
X23543Y628516D02*X33543D01*
X23543D02*Y607516D01*
Y608516D02*X33543D01*
X23543Y583894D02*X33543D01*
Y604894D02*Y583894D01*
X23543Y604894D02*X33543D01*
X23543D02*Y583894D01*
Y584894D02*X33543D01*
X23543Y560272D02*X33543D01*
Y581272D02*Y560272D01*
X23543Y581272D02*X33543D01*
X23543D02*Y560272D01*
Y561272D02*X33543D01*
X12717Y615390D02*X22717D01*
Y636390D02*Y615390D01*
X12717Y636390D02*X22717D01*
X12717D02*Y615390D01*
Y616390D02*X22717D01*
X12717Y591768D02*X22717D01*
Y612768D02*Y591768D01*
X12717Y612768D02*X22717D01*
X12717D02*Y591768D01*
Y592768D02*X22717D01*
X12717Y568146D02*X22717D01*
Y589146D02*Y568146D01*
X12717Y589146D02*X22717D01*
X12717D02*Y568146D01*
Y569146D02*X22717D01*
X1890Y599642D02*X11890D01*
Y620642D02*Y599642D01*
X1890Y620642D02*X11890D01*
X1890D02*Y599642D01*
Y600642D02*X11890D01*
X1890Y576020D02*X11890D01*
Y597020D02*Y576020D01*
X1890Y597020D02*X11890D01*
X1890D02*Y576020D01*
Y577020D02*X11890D01*
X23543Y536650D02*X33543D01*
Y557650D02*Y536650D01*
X23543Y557650D02*X33543D01*
X23543D02*Y536650D01*
Y537650D02*X33543D01*
X23543Y513028D02*X33543D01*
Y534028D02*Y513028D01*
X23543Y534028D02*X33543D01*
X23543D02*Y513028D01*
Y514028D02*X33543D01*
X12717Y544524D02*X22717D01*
Y565524D02*Y544524D01*
X12717Y565524D02*X22717D01*
X12717D02*Y544524D01*
Y545524D02*X22717D01*
X12717Y520902D02*X22717D01*
Y541902D02*Y520902D01*
X12717Y541902D02*X22717D01*
X12717D02*Y520902D01*
Y521902D02*X22717D01*
X1890Y552398D02*X11890D01*
Y573398D02*Y552398D01*
X1890Y573398D02*X11890D01*
X1890D02*Y552398D01*
Y553398D02*X11890D01*
X1890Y528776D02*X11890D01*
Y549776D02*Y528776D01*
X1890Y549776D02*X11890D01*
X1890D02*Y528776D01*
Y529776D02*X11890D01*
X23543Y796492D02*X33543D01*
Y817492D02*Y796492D01*
X23543Y817492D02*X33543D01*
X23543D02*Y796492D01*
Y797492D02*X33543D01*
X23543Y772870D02*X33543D01*
Y793870D02*Y772870D01*
X23543Y793870D02*X33543D01*
X23543D02*Y772870D01*
Y773870D02*X33543D01*
X23543Y749248D02*X33543D01*
Y770248D02*Y749248D01*
X23543Y770248D02*X33543D01*
X23543D02*Y749248D01*
Y750248D02*X33543D01*
X12717Y804366D02*X22717D01*
Y825366D02*Y804366D01*
X12717Y825366D02*X22717D01*
X12717D02*Y804366D01*
Y805366D02*X22717D01*
X1890Y788618D02*X11890D01*
Y809618D02*Y788618D01*
X1890Y809618D02*X11890D01*
X1890D02*Y788618D01*
Y789618D02*X11890D01*
X12717Y780744D02*X22717D01*
Y801744D02*Y780744D01*
X12717Y801744D02*X22717D01*
X12717D02*Y780744D01*
Y781744D02*X22717D01*
X12717Y757122D02*X22717D01*
Y778122D02*Y757122D01*
X12717Y778122D02*X22717D01*
X12717D02*Y757122D01*
Y758122D02*X22717D01*
X1890Y764996D02*X11890D01*
Y785996D02*Y764996D01*
X1890Y785996D02*X11890D01*
X1890D02*Y764996D01*
Y765996D02*X11890D01*
X23543Y843736D02*X33543D01*
Y864736D02*Y843736D01*
X23543Y864736D02*X33543D01*
X23543D02*Y843736D01*
Y844736D02*X33543D01*
X23543Y820114D02*X33543D01*
Y841114D02*Y820114D01*
X23543Y841114D02*X33543D01*
X23543D02*Y820114D01*
Y821114D02*X33543D01*
X12717Y827988D02*X22717D01*
Y848988D02*Y827988D01*
X12717Y848988D02*X22717D01*
X12717D02*Y827988D01*
Y828988D02*X22717D01*
X12717Y851610D02*X22717D01*
Y872610D02*Y851610D01*
X12717Y872610D02*X22717D01*
X12717D02*Y851610D01*
Y852610D02*X22717D01*
X1890Y859484D02*X11890D01*
Y880484D02*Y859484D01*
X1890Y880484D02*X11890D01*
X1890D02*Y859484D01*
Y860484D02*X11890D01*
X1890Y835862D02*X11890D01*
Y856862D02*Y835862D01*
X1890Y856862D02*X11890D01*
X1890D02*Y835862D01*
Y836862D02*X11890D01*
X1890Y812240D02*X11890D01*
Y833240D02*Y812240D01*
X1890Y833240D02*X11890D01*
X1890D02*Y812240D01*
Y813240D02*X11890D01*
X1890Y741374D02*X11890D01*
Y762374D02*Y741374D01*
X1890Y762374D02*X11890D01*
X1890D02*Y741374D01*
Y742374D02*X11890D01*
X23543Y725626D02*X33543D01*
Y746626D02*Y725626D01*
X23543Y746626D02*X33543D01*
X23543D02*Y725626D01*
Y726626D02*X33543D01*
X23543Y702004D02*X33543D01*
Y723004D02*Y702004D01*
X23543Y723004D02*X33543D01*
X23543D02*Y702004D01*
Y703004D02*X33543D01*
X23543Y678382D02*X33543D01*
Y699382D02*Y678382D01*
X23543Y699382D02*X33543D01*
X23543D02*Y678382D01*
Y679382D02*X33543D01*
X12717Y733500D02*X22717D01*
Y754500D02*Y733500D01*
X12717Y754500D02*X22717D01*
X12717D02*Y733500D01*
Y734500D02*X22717D01*
X12717Y709878D02*X22717D01*
Y730878D02*Y709878D01*
X12717Y730878D02*X22717D01*
X12717D02*Y709878D01*
Y710878D02*X22717D01*
X12717Y686256D02*X22717D01*
Y707256D02*Y686256D01*
X12717Y707256D02*X22717D01*
X12717D02*Y686256D01*
Y687256D02*X22717D01*
X1890Y717752D02*X11890D01*
Y738752D02*Y717752D01*
X1890Y738752D02*X11890D01*
X1890D02*Y717752D01*
Y718752D02*X11890D01*
X1890Y694130D02*X11890D01*
Y715130D02*Y694130D01*
X1890Y715130D02*X11890D01*
X1890D02*Y694130D01*
Y695130D02*X11890D01*
X1890Y505154D02*X11890D01*
Y526154D02*Y505154D01*
X1890Y526154D02*X11890D01*
X1890D02*Y505154D01*
Y506154D02*X11890D01*
X23543Y489406D02*X33543D01*
Y510406D02*Y489406D01*
X23543Y510406D02*X33543D01*
X23543D02*Y489406D01*
Y490406D02*X33543D01*
X23543Y465783D02*X33543D01*
Y486783D02*Y465783D01*
X23543Y486783D02*X33543D01*
X23543D02*Y465783D01*
Y466783D02*X33543D01*
X23543Y442162D02*X33543D01*
Y463162D02*Y442162D01*
X23543Y463162D02*X33543D01*
X23543D02*Y442162D01*
Y443162D02*X33543D01*
X12717Y497280D02*X22717D01*
Y518280D02*Y497280D01*
X12717Y518280D02*X22717D01*
X12717D02*Y497280D01*
Y498280D02*X22717D01*
X12717Y473657D02*X22717D01*
Y494657D02*Y473657D01*
X12717Y494657D02*X22717D01*
X12717D02*Y473657D01*
Y474657D02*X22717D01*
X12717Y450035D02*X22717D01*
Y471035D02*Y450035D01*
X12717Y471035D02*X22717D01*
X12717D02*Y450035D01*
Y451035D02*X22717D01*
X1890Y481532D02*X11890D01*
Y502532D02*Y481532D01*
X1890Y502532D02*X11890D01*
X1890D02*Y481532D01*
Y482532D02*X11890D01*
X1890Y457909D02*X11890D01*
Y478909D02*Y457909D01*
X1890Y478909D02*X11890D01*
X1890D02*Y457909D01*
Y458909D02*X11890D01*
X23543Y418539D02*X33543D01*
Y439539D02*Y418539D01*
X23543Y439539D02*X33543D01*
X23543D02*Y418539D01*
Y419539D02*X33543D01*
X23543Y394917D02*X33543D01*
Y415917D02*Y394917D01*
X23543Y415917D02*X33543D01*
X23543D02*Y394917D01*
Y395917D02*X33543D01*
X12717Y426413D02*X22717D01*
Y447413D02*Y426413D01*
X12717Y447413D02*X22717D01*
X12717D02*Y426413D01*
Y427413D02*X22717D01*
X12717Y402792D02*X22717D01*
Y423792D02*Y402792D01*
X12717Y423792D02*X22717D01*
X12717D02*Y402792D01*
Y403792D02*X22717D01*
X1890Y434287D02*X11890D01*
Y455287D02*Y434287D01*
X1890Y455287D02*X11890D01*
X1890D02*Y434287D01*
Y435287D02*X11890D01*
X1890Y410665D02*X11890D01*
Y431665D02*Y410665D01*
X1890Y431665D02*X11890D01*
X1890D02*Y410665D01*
Y411665D02*X11890D01*
X1890Y387043D02*X11890D01*
Y408043D02*Y387043D01*
X1890Y408043D02*X11890D01*
X1890D02*Y387043D01*
Y388043D02*X11890D01*
X23543Y371295D02*X33543D01*
Y392295D02*Y371295D01*
X23543Y392295D02*X33543D01*
X23543D02*Y371295D01*
Y372295D02*X33543D01*
X23543Y347673D02*X33543D01*
Y368673D02*Y347673D01*
X23543Y368673D02*X33543D01*
X23543D02*Y347673D01*
Y348673D02*X33543D01*
X23543Y324051D02*X33543D01*
Y345051D02*Y324051D01*
X23543Y345051D02*X33543D01*
X23543D02*Y324051D01*
Y325051D02*X33543D01*
X12717Y379169D02*X22717D01*
Y400169D02*Y379169D01*
X12717Y400169D02*X22717D01*
X12717D02*Y379169D01*
Y380169D02*X22717D01*
X12717Y355547D02*X22717D01*
Y376547D02*Y355547D01*
X12717Y376547D02*X22717D01*
X12717D02*Y355547D01*
Y356547D02*X22717D01*
X12717Y331925D02*X22717D01*
Y352925D02*Y331925D01*
X12717Y352925D02*X22717D01*
X12717D02*Y331925D01*
Y332925D02*X22717D01*
X1890Y363421D02*X11890D01*
Y384421D02*Y363421D01*
X1890Y384421D02*X11890D01*
X1890D02*Y363421D01*
Y364421D02*X11890D01*
X1890Y339799D02*X11890D01*
Y360799D02*Y339799D01*
X1890Y360799D02*X11890D01*
X1890D02*Y339799D01*
Y340799D02*X11890D01*
X23543Y300429D02*X33543D01*
Y321429D02*Y300429D01*
X23543Y321429D02*X33543D01*
X23543D02*Y300429D01*
Y301429D02*X33543D01*
X23543Y276807D02*X33543D01*
Y297807D02*Y276807D01*
X23543Y297807D02*X33543D01*
X23543D02*Y276807D01*
Y277807D02*X33543D01*
X12717Y308303D02*X22717D01*
Y329303D02*Y308303D01*
X12717Y329303D02*X22717D01*
X12717D02*Y308303D01*
Y309303D02*X22717D01*
X12717Y284681D02*X22717D01*
Y305681D02*Y284681D01*
X12717Y305681D02*X22717D01*
X12717D02*Y284681D01*
Y285681D02*X22717D01*
X1890Y316177D02*X11890D01*
Y337177D02*Y316177D01*
X1890Y337177D02*X11890D01*
X1890D02*Y316177D01*
Y317177D02*X11890D01*
X1890Y292555D02*X11890D01*
Y313555D02*Y292555D01*
X1890Y313555D02*X11890D01*
X1890D02*Y292555D01*
Y293555D02*X11890D01*
X1890Y268933D02*X11890D01*
Y289933D02*Y268933D01*
X1890Y289933D02*X11890D01*
X1890D02*Y268933D01*
Y269933D02*X11890D01*
X23543Y253185D02*X33543D01*
Y274185D02*Y253185D01*
X23543Y274185D02*X33543D01*
X23543D02*Y253185D01*
Y254185D02*X33543D01*
X23543Y229563D02*X33543D01*
Y250563D02*Y229563D01*
X23543Y250563D02*X33543D01*
X23543D02*Y229563D01*
Y230563D02*X33543D01*
X23543Y205941D02*X33543D01*
Y226941D02*Y205941D01*
X23543Y226941D02*X33543D01*
X23543D02*Y205941D01*
Y206941D02*X33543D01*
X12717Y261059D02*X22717D01*
Y282059D02*Y261059D01*
X12717Y282059D02*X22717D01*
X12717D02*Y261059D01*
Y262059D02*X22717D01*
X12717Y237437D02*X22717D01*
Y258437D02*Y237437D01*
X12717Y258437D02*X22717D01*
X12717D02*Y237437D01*
Y238437D02*X22717D01*
X12717Y213815D02*X22717D01*
Y234815D02*Y213815D01*
X12717Y234815D02*X22717D01*
X12717D02*Y213815D01*
Y214815D02*X22717D01*
X1890Y245311D02*X11890D01*
Y266311D02*Y245311D01*
X1890Y266311D02*X11890D01*
X1890D02*Y245311D01*
Y246311D02*X11890D01*
X1890Y221689D02*X11890D01*
Y242689D02*Y221689D01*
X1890Y242689D02*X11890D01*
X1890D02*Y221689D01*
Y222689D02*X11890D01*
X23543Y182319D02*X33543D01*
Y203319D02*Y182319D01*
X23543Y203319D02*X33543D01*
X23543D02*Y182319D01*
Y183319D02*X33543D01*
X23543Y158697D02*X33543D01*
Y179697D02*Y158697D01*
X23543Y179697D02*X33543D01*
X23543D02*Y158697D01*
Y159697D02*X33543D01*
X12717Y190193D02*X22717D01*
Y211193D02*Y190193D01*
X12717Y211193D02*X22717D01*
X12717D02*Y190193D01*
Y191193D02*X22717D01*
X12717Y166571D02*X22717D01*
Y187571D02*Y166571D01*
X12717Y187571D02*X22717D01*
X12717D02*Y166571D01*
Y167571D02*X22717D01*
X1890Y198067D02*X11890D01*
Y219067D02*Y198067D01*
X1890Y219067D02*X11890D01*
X1890D02*Y198067D01*
Y199067D02*X11890D01*
X1890Y174445D02*X11890D01*
Y195445D02*Y174445D01*
X1890Y195445D02*X11890D01*
X1890D02*Y174445D01*
Y175445D02*X11890D01*
X1890Y150823D02*X11890D01*
Y171823D02*Y150823D01*
X1890Y171823D02*X11890D01*
X1890D02*Y150823D01*
Y151823D02*X11890D01*
X23543Y135075D02*X33543D01*
Y156075D02*Y135075D01*
X23543Y156075D02*X33543D01*
X23543D02*Y135075D01*
Y136075D02*X33543D01*
X23543Y111453D02*X33543D01*
Y132453D02*Y111453D01*
X23543Y132453D02*X33543D01*
X23543D02*Y111453D01*
Y112453D02*X33543D01*
X23543Y87831D02*X33543D01*
Y108831D02*Y87831D01*
X23543Y108831D02*X33543D01*
X23543D02*Y87831D01*
Y88831D02*X33543D01*
X12717Y142949D02*X22717D01*
Y163949D02*Y142949D01*
X12717Y163949D02*X22717D01*
X12717D02*Y142949D01*
Y143949D02*X22717D01*
X12717Y119327D02*X22717D01*
Y140327D02*Y119327D01*
X12717Y140327D02*X22717D01*
X12717D02*Y119327D01*
Y120327D02*X22717D01*
X12717Y95705D02*X22717D01*
Y116705D02*Y95705D01*
X12717Y116705D02*X22717D01*
X12717D02*Y95705D01*
Y96705D02*X22717D01*
X1890Y127201D02*X11890D01*
Y148201D02*Y127201D01*
X1890Y148201D02*X11890D01*
X1890D02*Y127201D01*
Y128201D02*X11890D01*
X1890Y103579D02*X11890D01*
Y124579D02*Y103579D01*
X1890Y124579D02*X11890D01*
X1890D02*Y103579D01*
Y104579D02*X11890D01*
X23543Y64209D02*X33543D01*
Y85209D02*Y64209D01*
X23543Y85209D02*X33543D01*
X23543D02*Y64209D01*
Y65209D02*X33543D01*
X23543Y40587D02*X33543D01*
Y61587D02*Y40587D01*
X23543Y61587D02*X33543D01*
X23543D02*Y40587D01*
Y41587D02*X33543D01*
X12717Y72083D02*X22717D01*
Y93083D02*Y72083D01*
X12717Y93083D02*X22717D01*
X12717D02*Y72083D01*
Y73083D02*X22717D01*
X12717Y48461D02*X22717D01*
Y69461D02*Y48461D01*
X12717Y69461D02*X22717D01*
X12717D02*Y48461D01*
Y49461D02*X22717D01*
X1890Y79957D02*X11890D01*
Y100957D02*Y79957D01*
X1890Y100957D02*X11890D01*
X1890D02*Y79957D01*
Y80957D02*X11890D01*
X1890Y56335D02*X11890D01*
Y77335D02*Y56335D01*
X1890Y77335D02*X11890D01*
X1890D02*Y56335D01*
Y57335D02*X11890D01*
M02*
