G04 start of page 3 for group 1 idx 1 *
G04 Title: (unknown), bottom *
G04 Creator: pcb 1.99z *
G04 CreationDate: Thu 18 Dec 2014 10:43:42 PM GMT UTC *
G04 For: commonadmin *
G04 Format: Gerber/RS-274X *
G04 PCB-Dimensions (mil): 354.33 9055.12 *
G04 PCB-Coordinate-Origin: lower left *
%MOIN*%
%FSLAX25Y25*%
%LNBOTTOM*%
%ADD22C,0.0250*%
%ADD21C,0.1181*%
%ADD20C,0.0400*%
%ADD19C,0.1378*%
%ADD18R,0.0512X0.0512*%
%ADD17C,0.0150*%
G54D17*X18700Y28542D02*X17717Y27559D01*
X18700Y72835D02*Y892718D01*
X17717Y893701D01*
X28543Y848236D02*Y38386D01*
X17717Y27559D01*
G54D18*X18700Y782677D02*Y780315D01*
X6890Y782677D02*Y780315D01*
Y759055D02*Y756693D01*
X18700Y759055D02*Y756693D01*
X6890Y735433D02*Y733071D01*
X18700Y735433D02*Y733071D01*
X6890Y711811D02*Y709449D01*
X18700Y711811D02*Y709449D01*
Y688189D02*Y685827D01*
Y853543D02*Y851181D01*
X6890Y853543D02*Y851181D01*
X18700Y829921D02*Y827559D01*
X6890Y829921D02*Y827559D01*
Y877165D02*Y874803D01*
X18700Y877165D02*Y874803D01*
Y806299D02*Y803937D01*
X6890Y806299D02*Y803937D01*
Y688189D02*Y685827D01*
X18700Y664567D02*Y662205D01*
X6890Y664567D02*Y662205D01*
Y640945D02*Y638583D01*
X18700Y640945D02*Y638583D01*
Y593701D02*Y591339D01*
Y617323D02*Y614961D01*
X6890Y617323D02*Y614961D01*
Y593701D02*Y591339D01*
X18700Y570079D02*Y567717D01*
Y546457D02*Y544095D01*
X6890Y570079D02*Y567717D01*
Y546457D02*Y544095D01*
X18700Y522835D02*Y520473D01*
Y499212D02*Y496850D01*
X6890Y522835D02*Y520473D01*
Y499212D02*Y496850D01*
X18700Y475590D02*Y473228D01*
Y451968D02*Y449606D01*
X6890Y475590D02*Y473228D01*
Y451968D02*Y449606D01*
X18700Y428346D02*Y425984D01*
Y404724D02*Y402362D01*
X6890Y428346D02*Y425984D01*
Y404724D02*Y402362D01*
X18700Y381102D02*Y378740D01*
Y357480D02*Y355118D01*
X6890Y381102D02*Y378740D01*
Y357480D02*Y355118D01*
X18700Y333858D02*Y331496D01*
Y310236D02*Y307874D01*
X6890Y333858D02*Y331496D01*
Y310236D02*Y307874D01*
X18700Y286614D02*Y284252D01*
Y262992D02*Y260630D01*
X6890Y286614D02*Y284252D01*
Y262992D02*Y260630D01*
X18700Y239370D02*Y237008D01*
Y215748D02*Y213386D01*
X6890Y239370D02*Y237008D01*
Y215748D02*Y213386D01*
X18700Y192126D02*Y189764D01*
Y168504D02*Y166142D01*
X6890Y192126D02*Y189764D01*
Y168504D02*Y166142D01*
X18700Y144882D02*Y142520D01*
Y121260D02*Y118898D01*
X6890Y144882D02*Y142520D01*
Y121260D02*Y118898D01*
X18700Y97638D02*Y95276D01*
Y74016D02*Y71654D01*
X6890Y97638D02*Y95276D01*
Y74016D02*Y71654D01*
G54D19*X17717Y27559D03*
G54D20*X6890Y545276D03*
Y521654D03*
Y498031D03*
Y474409D03*
Y450787D03*
Y427165D03*
Y403543D03*
Y379921D03*
Y356299D03*
Y332677D03*
Y309055D03*
Y285433D03*
Y261811D03*
Y238189D03*
Y214567D03*
Y190945D03*
Y167323D03*
Y143701D03*
Y120079D03*
Y96457D03*
Y72835D03*
X28543Y612016D03*
Y588394D03*
Y564772D03*
Y541150D03*
Y517528D03*
Y493906D03*
Y470283D03*
Y446662D03*
Y423039D03*
Y399417D03*
Y375795D03*
Y352173D03*
Y328551D03*
Y304929D03*
Y281307D03*
Y257685D03*
Y234063D03*
Y210441D03*
Y186819D03*
Y163197D03*
Y139575D03*
Y115953D03*
Y92331D03*
Y68709D03*
Y45087D03*
G54D19*X17717Y893701D03*
G54D20*X6890Y875984D03*
Y852362D03*
Y828740D03*
Y805118D03*
Y781496D03*
X28543Y848236D03*
Y824614D03*
Y800992D03*
Y777370D03*
Y753748D03*
X6890Y710630D03*
Y687008D03*
Y663386D03*
Y639764D03*
Y616142D03*
Y592520D03*
Y568898D03*
Y757874D03*
Y734252D03*
X28543Y730126D03*
Y706504D03*
Y682882D03*
Y659260D03*
Y635638D03*
G54D21*G54D22*G54D21*G54D22*M02*
