M48
INCH
T25C0.025
T24C0.118
%
T25
X000689Y087598
X000689Y085236
X000689Y082874
X000689Y080512
X000689Y078150
X000689Y075787
X000689Y073425
X000689Y071063
X000689Y068701
X000689Y066339
X000689Y063976
X000689Y061614
X000689Y059252
X000689Y056890
X000689Y054528
X000689Y052165
X000689Y049803
X000689Y047441
X000689Y045079
X000689Y042717
X000689Y040354
X000689Y037992
X000689Y035630
X000689Y033268
X000689Y030906
X000689Y028543
X000689Y026181
X000689Y023819
X000689Y021457
X000689Y019094
X000689Y016732
X000689Y014370
X000689Y012008
X000689Y009646
X000689Y007283
X002854Y084824
X002854Y082461
X002854Y080099
X002854Y077737
X002854Y075375
X002854Y073013
X002854Y070650
X002854Y068288
X002854Y065926
X002854Y063564
X002854Y061202
X002854Y058839
X002854Y056477
X002854Y054115
X002854Y051753
X002854Y049391
X002854Y047028
X002854Y044666
X002854Y042304
X002854Y039942
X002854Y037580
X002854Y035217
X002854Y032855
X002854Y030493
X002854Y028131
X002854Y025769
X002854Y023406
X002854Y021044
X002854Y018682
X002854Y016320
X002854Y013957
X002854Y011595
X002854Y009233
X002854Y006871
X002854Y004509
T24
X001772Y089370
X001772Y002756
M30
